<svg width="28" height="22" viewBox="0 0 28 22" fill="none" xmlns="http://www.w3.org/2000/svg">
<path fill-rule="evenodd" clip-rule="evenodd" d="M9.33341 3.63171C9.33341 3.13053 9.81524 2.72378 10.4102 2.72378H17.5899C18.1849 2.72378 18.6668 3.13053 18.6668 3.63171C18.6668 4.13288 18.1849 4.53963 17.5899 4.53963H10.4102C9.81524 4.53963 9.33341 4.13288 9.33341 3.63171ZM11.4077 19.0665H16.5924C20.2336 19.0665 22.0548 19.0665 23.3626 18.4109C23.9253 18.1294 24.4113 17.7644 24.7929 17.3369C25.6668 16.3563 25.6668 14.9899 25.6668 12.257C25.6668 9.52415 25.6668 8.15863 24.7918 7.17716C24.4105 6.74963 23.9249 6.38467 23.3626 6.10308C22.0548 5.44756 20.2336 5.44756 16.5924 5.44756H11.4077C7.76657 5.44756 5.9454 5.44756 4.63757 6.10308C4.07526 6.38469 3.58965 6.74965 3.2084 7.17716C2.33339 8.15772 2.33339 9.52415 2.33339 12.2552V12.257C2.33339 14.9899 2.33339 16.3554 3.20723 17.3369C3.58523 17.7618 4.07056 18.1268 4.63757 18.4109C5.9454 19.0665 7.76657 19.0665 11.4077 19.0665ZM9.13858 12.257C9.13858 10.2414 11.3156 8.60896 14.0001 8.60896C16.6846 8.60896 18.8616 10.2423 18.8616 12.257C18.8616 14.2717 16.6834 15.9051 14.0001 15.9051C11.3156 15.9051 9.13858 14.2708 9.13858 12.257ZM11.0834 12.257C11.0834 11.0477 12.3901 10.0689 14.0001 10.0689C15.6101 10.0689 16.9168 11.0486 16.9168 12.257C16.9168 13.4655 15.6101 14.4451 14.0001 14.4451C12.3901 14.4451 11.0834 13.4655 11.0834 12.257ZM21.1296 8.60896C20.5929 8.60896 20.1578 8.93582 20.1578 9.33894C20.1578 9.74115 20.5929 10.068 21.1296 10.068H21.7783C22.3149 10.068 22.7501 9.74115 22.7501 9.33894C22.7501 8.93582 22.3149 8.60896 21.7783 8.60896H21.1296Z" fill="#242760" fill-opacity="0.81"/>
</svg>
