<svg width="31" height="32" viewBox="0 0 31 32" fill="none" xmlns="http://www.w3.org/2000/svg">
<path d="M15.1882 10.6667V21.3333M3.79705 16C3.79705 17.5759 4.09169 19.1363 4.66415 20.5922C5.23661 22.0481 6.07567 23.371 7.13344 24.4853C8.19121 25.5996 9.44696 26.4835 10.829 27.0866C12.211 27.6896 13.6923 28 15.1882 28C16.6841 28 18.1654 27.6896 19.5474 27.0866C20.9294 26.4835 22.1852 25.5996 23.2429 24.4853C24.3007 23.371 25.1398 22.0481 25.7122 20.5922C26.2847 19.1363 26.5793 17.5759 26.5793 16C26.5793 14.4242 26.2847 12.8637 25.7122 11.4078C25.1398 9.95191 24.3007 8.62904 23.2429 7.51473C22.1852 6.40043 20.9294 5.51652 19.5474 4.91346C18.1654 4.3104 16.6841 4.00002 15.1882 4.00002C13.6923 4.00002 12.211 4.3104 10.829 4.91346C9.44696 5.51652 8.19121 6.40043 7.13344 7.51473C6.07567 8.62904 5.23661 9.95191 4.66415 11.4078C4.09169 12.8637 3.79705 14.4242 3.79705 16Z" stroke="#544C4C" stroke-width="2.66667" stroke-linecap="round" stroke-linejoin="round"/>
</svg>
