<svg width="31" height="32" viewBox="0 0 31 32" fill="none" xmlns="http://www.w3.org/2000/svg">
<path d="M13.9225 24H16.4539V21.3333H13.9225V24ZM15.1882 2.66664C13.5261 2.66664 11.8803 3.01151 10.3447 3.68158C8.80906 4.35164 7.41378 5.33376 6.23849 6.57188C3.86487 9.07236 2.53139 12.4637 2.53139 16C2.53139 19.5362 3.86487 22.9276 6.23849 25.4281C7.41378 26.6662 8.80906 27.6483 10.3447 28.3184C11.8803 28.9884 13.5261 29.3333 15.1882 29.3333C18.545 29.3333 21.7643 27.9285 24.1379 25.4281C26.5116 22.9276 27.845 19.5362 27.845 16C27.845 14.249 27.5177 12.5152 26.8816 10.8975C26.2455 9.27985 25.3132 7.80999 24.1379 6.57188C22.9626 5.33376 21.5674 4.35164 20.0318 3.68158C18.4962 3.01151 16.8503 2.66664 15.1882 2.66664ZM15.1882 26.6666C9.60655 26.6666 5.06275 21.88 5.06275 16C5.06275 10.12 9.60655 5.3333 15.1882 5.3333C20.7699 5.3333 25.3137 10.12 25.3137 16C25.3137 21.88 20.7699 26.6666 15.1882 26.6666ZM15.1882 7.99997C13.8455 7.99997 12.5578 8.56187 11.6083 9.56207C10.6589 10.5623 10.1255 11.9188 10.1255 13.3333H12.6568C12.6568 12.6261 12.9235 11.9478 13.3983 11.4477C13.873 10.9476 14.5169 10.6666 15.1882 10.6666C15.8596 10.6666 16.5034 10.9476 16.9782 11.4477C17.4529 11.9478 17.7196 12.6261 17.7196 13.3333C17.7196 16 13.9225 15.6666 13.9225 20H16.4539C16.4539 17 20.2509 16.6666 20.2509 13.3333C20.2509 11.9188 19.7176 10.5623 18.7681 9.56207C17.8187 8.56187 16.5309 7.99997 15.1882 7.99997Z" fill="#544C4C"/>
</svg>
