<svg width="50" height="48" viewBox="0 0 50 48" fill="none" xmlns="http://www.w3.org/2000/svg">
<g filter="url(#filter0_d_1_1369)">
<mask id="path-1-outside-1_1_1369" maskUnits="userSpaceOnUse" x="9.39691" y="5" width="30" height="28" fill="black">
<rect fill="white" x="9.39691" y="5" width="30" height="28"/>
<path fill-rule="evenodd" clip-rule="evenodd" d="M32.7197 8H32.5123H24.7606H24.7606H24.6255H24.6254H16.8739H16.6663C16.3224 8 16.0436 8.27877 16.0436 8.62264C16.0436 8.96652 16.3224 9.24528 16.6663 9.24528H16.749C16.7136 9.6714 16.6869 10.0864 16.6683 10.4906H14.3777C13.6621 10.4906 13.0741 11.0373 13.0088 11.7358H13C13 11.8712 13.0009 12.0074 13.0027 12.1443V12.566H13.012C13.0693 14.4524 13.3565 16.4465 14.3642 18.2805C15.4915 20.3321 17.4536 22.0679 20.7006 23.2861C21.6089 24.1117 22.517 24.6285 23.2434 24.9475L22.6852 27.9245H24.6254H24.7606H26.7009L26.1427 24.9475C26.867 24.6294 27.7721 24.1146 28.6779 23.293C31.9359 22.0744 33.9033 20.3359 35.0327 18.2805C36.1896 16.1748 36.3969 13.8582 36.3969 11.7358H36.3772C36.3119 11.0373 35.7239 10.4906 35.0083 10.4906H32.7178C32.6993 10.0864 32.6725 9.6714 32.6371 9.24528H32.7197C33.0636 9.24528 33.3424 8.96652 33.3424 8.62264C33.3424 8.27877 33.0636 8 32.7197 8ZM16.6451 12.566C16.7238 15.6302 17.3175 17.972 18.1513 19.7595C17.1827 19.0164 16.5165 18.2001 16.0513 17.3535C15.2591 15.9117 14.9956 14.2871 14.9381 12.566H16.6451ZM31.2288 19.7724C32.0657 17.9832 32.6622 15.6376 32.7411 12.566H34.4588C34.4013 14.2871 34.1378 15.9117 33.3456 17.3535C32.8777 18.205 32.2065 19.0258 31.2288 19.7724ZM29.6118 27.9245C30.0674 27.9245 30.4368 28.2939 30.4368 28.7495V29.175C30.4368 29.6306 30.0674 30 29.6118 30H24.7607H24.6255H19.7743C19.3187 30 18.9493 29.6306 18.9493 29.175V28.7495C18.9493 28.2939 19.3187 27.9245 19.7743 27.9245H24.6255H24.7607H29.6118Z"/>
</mask>
<path fill-rule="evenodd" clip-rule="evenodd" d="M32.7197 8H32.5123H24.7606H24.7606H24.6255H24.6254H16.8739H16.6663C16.3224 8 16.0436 8.27877 16.0436 8.62264C16.0436 8.96652 16.3224 9.24528 16.6663 9.24528H16.749C16.7136 9.6714 16.6869 10.0864 16.6683 10.4906H14.3777C13.6621 10.4906 13.0741 11.0373 13.0088 11.7358H13C13 11.8712 13.0009 12.0074 13.0027 12.1443V12.566H13.012C13.0693 14.4524 13.3565 16.4465 14.3642 18.2805C15.4915 20.3321 17.4536 22.0679 20.7006 23.2861C21.6089 24.1117 22.517 24.6285 23.2434 24.9475L22.6852 27.9245H24.6254H24.7606H26.7009L26.1427 24.9475C26.867 24.6294 27.7721 24.1146 28.6779 23.293C31.9359 22.0744 33.9033 20.3359 35.0327 18.2805C36.1896 16.1748 36.3969 13.8582 36.3969 11.7358H36.3772C36.3119 11.0373 35.7239 10.4906 35.0083 10.4906H32.7178C32.6993 10.0864 32.6725 9.6714 32.6371 9.24528H32.7197C33.0636 9.24528 33.3424 8.96652 33.3424 8.62264C33.3424 8.27877 33.0636 8 32.7197 8ZM16.6451 12.566C16.7238 15.6302 17.3175 17.972 18.1513 19.7595C17.1827 19.0164 16.5165 18.2001 16.0513 17.3535C15.2591 15.9117 14.9956 14.2871 14.9381 12.566H16.6451ZM31.2288 19.7724C32.0657 17.9832 32.6622 15.6376 32.7411 12.566H34.4588C34.4013 14.2871 34.1378 15.9117 33.3456 17.3535C32.8777 18.205 32.2065 19.0258 31.2288 19.7724ZM29.6118 27.9245C30.0674 27.9245 30.4368 28.2939 30.4368 28.7495V29.175C30.4368 29.6306 30.0674 30 29.6118 30H24.7607H24.6255H19.7743C19.3187 30 18.9493 29.6306 18.9493 29.175V28.7495C18.9493 28.2939 19.3187 27.9245 19.7743 27.9245H24.6255H24.7607H29.6118Z" fill="#FCE23C"/>
<path d="M16.749 9.24528V6.24528H20.0086L19.7387 9.49371L16.749 9.24528ZM16.6683 10.4906L19.6652 10.6281L19.5339 13.4906H16.6683V10.4906ZM13.0088 11.7358L15.9957 12.0154L15.7411 14.7358H13.0088V11.7358ZM13 11.7358H10V8.73585H13V11.7358ZM13.0027 12.1443L16.0025 12.1031L16.0027 12.1237V12.1443H13.0027ZM13.0027 12.566V15.566H10.0027V12.566H13.0027ZM13.012 12.566V9.56604H15.9221L16.0106 12.4749L13.012 12.566ZM14.3642 18.2805L11.735 19.7251V19.7251L14.3642 18.2805ZM20.7006 23.2861L21.7545 20.4773L22.2929 20.6794L22.7185 21.0662L20.7006 23.2861ZM23.2434 24.9475L24.4498 22.2008L26.631 23.1588L26.192 25.5004L23.2434 24.9475ZM22.6852 27.9245V30.9245H19.0704L19.7365 27.3716L22.6852 27.9245ZM26.7009 27.9245L29.6495 27.3716L30.3156 30.9245H26.7009V27.9245ZM26.1427 24.9475L23.1941 25.5004L22.755 23.1588L24.9363 22.2008L26.1427 24.9475ZM28.6779 23.293L26.6623 21.071L27.0883 20.6846L27.6269 20.4831L28.6779 23.293ZM35.0327 18.2805L37.6619 19.7251L37.6619 19.7251L35.0327 18.2805ZM36.3969 11.7358V8.73585H39.3969V11.7358H36.3969ZM36.3772 11.7358V14.7358H33.6448L33.3903 12.0154L36.3772 11.7358ZM32.7178 10.4906V13.4906H29.8523L29.721 10.6281L32.7178 10.4906ZM32.6371 9.24528L29.6474 9.49371L29.3775 6.24528H32.6371V9.24528ZM18.1513 19.7595L20.8701 18.4914L16.3251 22.1397L18.1513 19.7595ZM16.6451 12.566V9.56604H19.569L19.6441 12.489L16.6451 12.566ZM16.0513 17.3535L18.6806 15.9088L18.6806 15.9088L16.0513 17.3535ZM14.9381 12.566L11.9398 12.6662L11.8362 9.56604H14.9381V12.566ZM32.7411 12.566L29.7421 12.489L29.8171 9.56604H32.7411V12.566ZM31.2288 19.7724L33.0495 22.1567L28.5114 18.5013L31.2288 19.7724ZM34.4588 12.566V9.56604H37.5607L37.4571 12.6662L34.4588 12.566ZM33.3456 17.3535L30.7163 15.9088L30.7163 15.9088L33.3456 17.3535ZM32.5123 5H32.7197V11H32.5123V5ZM24.7606 5H32.5123V11H24.7606V5ZM24.7606 5H24.7606V11H24.7606V5ZM24.6255 5H24.7606V11H24.6255V5ZM24.6254 5H24.6255V11H24.6254V5ZM16.8739 5H24.6254V11H16.8739V5ZM16.6663 5H16.8739V11H16.6663V5ZM13.0436 8.62264C13.0436 6.62191 14.6656 5 16.6663 5V11C17.9793 11 19.0436 9.93563 19.0436 8.62264H13.0436ZM16.6663 12.2453C14.6656 12.2453 13.0436 10.6234 13.0436 8.62264H19.0436C19.0436 7.30966 17.9793 6.24528 16.6663 6.24528V12.2453ZM16.749 12.2453H16.6663V6.24528H16.749V12.2453ZM13.6715 10.3531C13.6918 9.91093 13.7209 9.45894 13.7593 8.99686L19.7387 9.49371C19.7063 9.88387 19.682 10.2619 19.6652 10.6281L13.6715 10.3531ZM14.3777 7.49057H16.6683V13.4906H14.3777V7.49057ZM10.0218 11.4563C10.2301 9.23047 12.099 7.49057 14.3777 7.49057V13.4906C15.2252 13.4906 15.9182 12.8441 15.9957 12.0154L10.0218 11.4563ZM13 8.73585H13.0088V14.7358H13V8.73585ZM10.003 12.1855C10.0009 12.0337 10 11.8837 10 11.7358H16C16 11.8588 16.0008 11.9812 16.0025 12.1031L10.003 12.1855ZM10.0027 12.566V12.1443H16.0027V12.566H10.0027ZM13.012 15.566H13.0027V9.56604H13.012V15.566ZM11.735 19.7251C10.3997 17.2949 10.0771 14.7563 10.0133 12.6572L16.0106 12.4749C16.0614 14.1484 16.3134 15.598 16.9935 16.8358L11.735 19.7251ZM19.6468 26.0949C15.8593 24.6739 13.2693 22.5175 11.735 19.7251L16.9935 16.8358C17.7137 18.1466 19.048 19.4619 21.7545 20.4773L19.6468 26.0949ZM22.0369 27.6942C21.0626 27.2663 19.868 26.5834 18.6828 25.5061L22.7185 21.0662C23.3498 21.64 23.9714 21.9906 24.4498 22.2008L22.0369 27.6942ZM19.7365 27.3716L20.2947 24.3946L26.192 25.5004L25.6338 28.4774L19.7365 27.3716ZM24.6254 30.9245H22.6852V24.9245H24.6254V30.9245ZM24.7606 30.9245H24.6254V24.9245H24.7606V30.9245ZM26.7009 30.9245H24.7606V24.9245H26.7009V30.9245ZM29.0913 24.3947L29.6495 27.3716L23.7523 28.4774L23.1941 25.5004L29.0913 24.3947ZM30.6935 25.5151C29.5114 26.5873 28.3207 27.2675 27.3491 27.6943L24.9363 22.2008C25.4133 21.9913 26.0329 21.6419 26.6623 21.071L30.6935 25.5151ZM37.6619 19.7251C36.1246 22.523 33.5277 24.682 29.7289 26.1029L27.6269 20.4831C30.3441 19.4668 31.682 18.1488 32.4034 16.8358L37.6619 19.7251ZM39.3969 11.7358C39.3969 14.0049 39.1903 16.9435 37.6619 19.7251L32.4034 16.8358C33.189 15.4061 33.3969 13.7114 33.3969 11.7358H39.3969ZM36.3772 8.73585H36.3969V14.7358H36.3772V8.73585ZM35.0083 7.49057C37.287 7.49057 39.1559 9.23047 39.3642 11.4563L33.3903 12.0154C33.4678 12.8441 34.1608 13.4906 35.0083 13.4906V7.49057ZM32.7178 7.49057H35.0083V13.4906H32.7178V7.49057ZM35.6268 8.99686C35.6652 9.45894 35.6944 9.91094 35.7147 10.3531L29.721 10.6281C29.7042 10.2619 29.6798 9.88386 29.6474 9.49371L35.6268 8.99686ZM32.7197 12.2453H32.6371V6.24528H32.7197V12.2453ZM36.3424 8.62264C36.3424 10.6234 34.7205 12.2453 32.7197 12.2453V6.24528C31.4068 6.24528 30.3424 7.30966 30.3424 8.62264H36.3424ZM32.7197 5C34.7205 5 36.3424 6.62191 36.3424 8.62264H30.3424C30.3424 9.93562 31.4068 11 32.7197 11V5ZM15.4325 21.0276C14.4007 18.8155 13.7338 16.059 13.6461 12.6431L19.6441 12.489C19.7138 15.2015 20.2344 17.1285 20.8701 18.4914L15.4325 21.0276ZM18.6806 15.9088C18.9458 16.3915 19.3385 16.8892 19.9774 17.3794L16.3251 22.1397C15.0269 21.1436 14.0873 20.0087 13.4221 18.7981L18.6806 15.9088ZM17.9364 12.4659C17.9869 13.9751 18.2137 15.0592 18.6806 15.9088L13.4221 18.7981C12.3045 16.7642 12.0044 14.5991 11.9398 12.6662L17.9364 12.4659ZM16.6451 15.566H14.9381V9.56604H16.6451V15.566ZM35.7401 12.6431C35.6521 16.0672 34.9822 18.8287 33.9463 21.0435L28.5114 18.5013C29.1492 17.1377 29.6722 15.2079 29.7421 12.489L35.7401 12.6431ZM34.4588 15.566H32.7411V9.56604H34.4588V15.566ZM30.7163 15.9088C31.1832 15.0592 31.4101 13.9751 31.4605 12.4659L37.4571 12.6662C37.3926 14.5991 37.0924 16.7642 35.9748 18.7981L30.7163 15.9088ZM29.4082 17.3881C30.054 16.8949 30.4497 16.3941 30.7163 15.9088L35.9748 18.7981C35.3057 20.0159 34.359 21.1568 33.0495 22.1567L29.4082 17.3881ZM27.4368 28.7495C27.4368 29.9507 28.4106 30.9245 29.6118 30.9245V24.9245C31.7243 24.9245 33.4368 26.637 33.4368 28.7495H27.4368ZM27.4368 29.175V28.7495H33.4368V29.175H27.4368ZM29.6118 27C28.4106 27 27.4368 27.9738 27.4368 29.175H33.4368C33.4368 31.2875 31.7243 33 29.6118 33V27ZM24.7607 27H29.6118V33H24.7607V27ZM24.6255 27H24.7607V33H24.6255V27ZM19.7743 27H24.6255V33H19.7743V27ZM21.9493 29.175C21.9493 27.9738 20.9756 27 19.7743 27V33C17.6618 33 15.9493 31.2875 15.9493 29.175H21.9493ZM21.9493 28.7495V29.175H15.9493V28.7495H21.9493ZM19.7743 30.9245C20.9756 30.9245 21.9493 29.9507 21.9493 28.7495H15.9493C15.9493 26.637 17.6618 24.9245 19.7743 24.9245V30.9245ZM24.6255 30.9245H19.7743V24.9245H24.6255V30.9245ZM24.7607 30.9245H24.6255V24.9245H24.7607V30.9245ZM29.6118 30.9245H24.7607V24.9245H29.6118V30.9245Z" fill="#FCFCFC" mask="url(#path-1-outside-1_1_1369)"/>
</g>
<defs>
<filter id="filter0_d_1_1369" x="0" y="0" width="49.3969" height="48" filterUnits="userSpaceOnUse" color-interpolation-filters="sRGB">
<feFlood flood-opacity="0" result="BackgroundImageFix"/>
<feColorMatrix in="SourceAlpha" type="matrix" values="0 0 0 0 0 0 0 0 0 0 0 0 0 0 0 0 0 0 127 0" result="hardAlpha"/>
<feOffset dy="5"/>
<feGaussianBlur stdDeviation="5"/>
<feColorMatrix type="matrix" values="0 0 0 0 0.779167 0 0 0 0 0.181806 0 0 0 0 0.398465 0 0 0 0.1 0"/>
<feBlend mode="normal" in2="BackgroundImageFix" result="effect1_dropShadow_1_1369"/>
<feBlend mode="normal" in="SourceGraphic" in2="effect1_dropShadow_1_1369" result="shape"/>
</filter>
</defs>
</svg>
