<svg width="25" height="25" viewBox="0 0 25 25" fill="none" xmlns="http://www.w3.org/2000/svg">
<path fill-rule="evenodd" clip-rule="evenodd" d="M21.044 9.812H23.252C23.924 9.812 24.5 10.388 24.5 11.06V13.94C24.5 14.612 23.924 15.188 23.252 15.188H21.044C20.756 15.188 20.372 15.476 20.276 15.764C20.18 16.148 20.18 16.436 20.468 16.724L22.1 18.356C22.388 18.548 22.484 18.932 22.484 19.22C22.484 19.508 22.292 19.892 22.1 20.084L20.084 22.1C19.604 22.58 18.836 22.58 18.356 22.1L16.724 20.468C16.436 20.18 16.052 20.18 15.764 20.276C15.38 20.372 15.188 20.66 15.188 21.044V23.252C15.188 23.924 14.612 24.5 13.94 24.5H11.06C10.388 24.5 9.812 23.924 9.812 23.252V21.044C9.812 20.756 9.524 20.372 9.236 20.276C8.852 20.18 8.564 20.18 8.276 20.468L6.644 22.1C6.164 22.58 5.396 22.58 4.916 22.1L2.9 20.084C2.612 19.892 2.516 19.508 2.516 19.22C2.516 18.932 2.708 18.548 2.9 18.356L4.532 16.724C4.82 16.436 4.82 16.052 4.724 15.764C4.628 15.38 4.34 15.188 3.956 15.188H1.748C1.076 15.188 0.5 14.612 0.5 13.94V11.06C0.5 10.388 1.076 9.812 1.748 9.812H3.956C4.244 9.812 4.628 9.524 4.724 9.236C4.82 8.852 4.82 8.564 4.532 8.276L2.9 6.644C2.612 6.452 2.516 6.068 2.516 5.78C2.516 5.492 2.708 5.108 2.9 4.916L4.916 2.9C5.396 2.42 6.164 2.42 6.644 2.9L8.276 4.532C8.564 4.82 8.948 4.82 9.236 4.724C9.62 4.628 9.812 4.34 9.812 3.956V1.748C9.812 1.076 10.388 0.5 11.06 0.5H13.94C14.612 0.5 15.188 1.076 15.188 1.748V3.956C15.188 4.244 15.476 4.628 15.764 4.724C16.148 4.82 16.436 4.82 16.724 4.532L18.356 2.9C18.836 2.42 19.604 2.42 20.084 2.9L22.1 4.916C22.388 5.108 22.484 5.492 22.484 5.78C22.484 6.068 22.292 6.452 22.1 6.644L20.468 8.276C20.18 8.564 20.18 8.948 20.276 9.236C20.372 9.62 20.66 9.812 21.044 9.812ZM23.252 14.324C23.444 14.324 23.636 14.132 23.636 13.94V11.06C23.636 10.868 23.444 10.676 23.252 10.676H21.044C20.276 10.676 19.7 10.292 19.412 9.62C19.124 8.948 19.316 8.18 19.796 7.7L21.428 6.068C21.524 5.972 21.524 5.684 21.428 5.588L19.412 3.572C19.316 3.476 19.028 3.476 18.932 3.572L17.3 5.204C16.82 5.684 16.052 5.876 15.38 5.588C14.708 5.3 14.324 4.724 14.324 3.956V1.748C14.324 1.556 14.132 1.364 13.94 1.364H11.06C10.868 1.364 10.676 1.556 10.676 1.748V3.956C10.676 4.724 10.292 5.3 9.62 5.588C8.948 5.876 8.18 5.684 7.7 5.204L6.068 3.572C5.972 3.476 5.684 3.476 5.588 3.572L3.572 5.588C3.476 5.684 3.476 5.972 3.572 6.068L5.204 7.7C5.684 8.18 5.876 8.948 5.588 9.62C5.3 10.292 4.724 10.676 3.956 10.676H1.748C1.556 10.676 1.364 10.868 1.364 11.06V13.94C1.364 14.132 1.556 14.324 1.748 14.324H3.956C4.724 14.324 5.3 14.708 5.588 15.38C5.876 16.052 5.684 16.82 5.204 17.3L3.572 18.932C3.476 19.028 3.476 19.316 3.572 19.412L5.588 21.428C5.684 21.524 5.972 21.524 6.068 21.428L7.7 19.796C8.084 19.508 8.468 19.316 8.948 19.316C9.14 19.316 9.428 19.316 9.62 19.412C10.292 19.7 10.676 20.276 10.676 21.044V23.252C10.676 23.444 10.868 23.636 11.06 23.636H13.94C14.132 23.636 14.324 23.444 14.324 23.252V21.044C14.324 20.276 14.708 19.7 15.38 19.412C16.052 19.124 16.82 19.316 17.3 19.796L18.932 21.428C19.028 21.524 19.316 21.524 19.412 21.428L21.428 19.412C21.524 19.316 21.524 19.028 21.428 18.932L19.796 17.3C19.316 16.82 19.124 16.052 19.412 15.38C19.7 14.708 20.276 14.324 21.044 14.324H23.252Z" fill="black"/>
<path d="M20.276 15.764L19.8017 15.6059L19.7956 15.6241L19.7909 15.6427L20.276 15.764ZM22.1 18.356L21.7464 18.7096L21.7815 18.7446L21.8227 18.772L22.1 18.356ZM15.764 20.276L15.8853 20.7611L15.9039 20.7564L15.9221 20.7503L15.764 20.276ZM9.236 20.276L9.39411 19.8017L9.3759 19.7956L9.35727 19.7909L9.236 20.276ZM6.644 22.1L6.99755 22.4536L6.644 22.1ZM4.916 22.1L4.56245 22.4536L4.916 22.1ZM2.9 20.084L3.25355 19.7304L3.21854 19.6954L3.17735 19.668L2.9 20.084ZM2.9 18.356L3.25355 18.7096H3.25355L2.9 18.356ZM4.724 15.764L4.23893 15.8853L4.24359 15.9039L4.24966 15.9221L4.724 15.764ZM4.724 9.236L5.19834 9.39411L5.20441 9.3759L5.20907 9.35727L4.724 9.236ZM2.9 6.644L3.25355 6.29045L3.21854 6.25544L3.17735 6.22797L2.9 6.644ZM9.236 4.724L9.11473 4.23893L9.0961 4.24359L9.07789 4.24966L9.236 4.724ZM15.764 4.724L15.6059 5.19834L15.6241 5.20441L15.6427 5.20907L15.764 4.724ZM18.356 2.9L18.7096 3.25355L18.356 2.9ZM20.084 2.9L19.7304 3.25355V3.25355L20.084 2.9ZM22.1 4.916L21.7464 5.26955L21.7815 5.30456L21.8227 5.33203L22.1 4.916ZM22.1 6.644L22.4536 6.99755V6.99755L22.1 6.644ZM20.276 9.236L20.7611 9.11473L20.7564 9.0961L20.7503 9.07789L20.276 9.236ZM19.796 7.7L19.4424 7.34645L19.796 7.7ZM21.428 6.068L21.7816 6.42155L21.7816 6.42155L21.428 6.068ZM21.428 5.588L21.7816 5.23445L21.7816 5.23445L21.428 5.588ZM19.412 3.572L19.7656 3.21845L19.7656 3.21845L19.412 3.572ZM18.932 3.572L19.2856 3.92555L19.2856 3.92555L18.932 3.572ZM17.3 5.204L16.9464 4.85045V4.85045L17.3 5.204ZM15.38 5.588L15.577 5.12843V5.12843L15.38 5.588ZM9.62 5.588L9.42304 5.12843V5.12843L9.62 5.588ZM6.068 3.572L5.71445 3.92555L5.71445 3.92555L6.068 3.572ZM5.588 3.572L5.23445 3.21845L5.23445 3.21845L5.588 3.572ZM3.572 5.588L3.21845 5.23445L3.21845 5.23445L3.572 5.588ZM3.572 6.068L3.92555 5.71445L3.92555 5.71445L3.572 6.068ZM5.588 9.62L5.12843 9.42304H5.12843L5.588 9.62ZM5.588 15.38L5.12843 15.577H5.12843L5.588 15.38ZM5.204 17.3L4.85045 16.9464H4.85045L5.204 17.3ZM3.572 18.932L3.92555 19.2856L3.92555 19.2856L3.572 18.932ZM3.572 19.412L3.21845 19.7656L3.21845 19.7656L3.572 19.412ZM5.588 21.428L5.23445 21.7816L5.23445 21.7816L5.588 21.428ZM6.068 21.428L6.42155 21.7816L6.42155 21.7816L6.068 21.428ZM7.7 19.796L7.4 19.396L7.37157 19.4173L7.34645 19.4424L7.7 19.796ZM9.62 19.412L9.39639 19.8592L9.40953 19.8658L9.42304 19.8716L9.62 19.412ZM17.3 19.796L16.9464 20.1496L17.3 19.796ZM18.932 21.428L19.2856 21.0744L18.932 21.428ZM19.412 21.428L19.7656 21.7816L19.7656 21.7816L19.412 21.428ZM21.428 19.412L21.7816 19.7656L21.7816 19.7656L21.428 19.412ZM21.428 18.932L21.0744 19.2856L21.428 18.932ZM19.796 17.3L20.1496 16.9464L19.796 17.3ZM23.252 9.312H21.044V10.312H23.252V9.312ZM25 11.06C25 10.1119 24.2001 9.312 23.252 9.312V10.312C23.6479 10.312 24 10.6641 24 11.06H25ZM25 13.94V11.06H24V13.94H25ZM23.252 15.688C24.2001 15.688 25 14.8881 25 13.94H24C24 14.3359 23.6479 14.688 23.252 14.688V15.688ZM21.044 15.688H23.252V14.688H21.044V15.688ZM20.7503 15.9221C20.7515 15.9187 20.7599 15.898 20.7864 15.8648C20.812 15.8329 20.8469 15.7988 20.888 15.768C20.9292 15.7371 20.9697 15.7147 21.0032 15.7011C21.0386 15.6868 21.0522 15.688 21.044 15.688V14.688C20.7523 14.688 20.4804 14.8237 20.288 14.968C20.0929 15.1143 19.892 15.3348 19.8017 15.6059L20.7503 15.9221ZM20.8216 16.3704C20.7432 16.292 20.7281 16.2422 20.7222 16.204C20.7135 16.1474 20.7181 16.0571 20.7611 15.8853L19.7909 15.6427C19.7379 15.8549 19.6945 16.1006 19.7338 16.356C19.7759 16.6298 19.9048 16.868 20.1144 17.0776L20.8216 16.3704ZM22.4536 18.0024L20.8216 16.3704L20.1144 17.0776L21.7464 18.7096L22.4536 18.0024ZM22.984 19.22C22.984 18.8694 22.8733 18.2706 22.3773 17.94L21.8227 18.772C21.8577 18.7954 21.8991 18.8426 21.9333 18.9315C21.9677 19.0209 21.984 19.1265 21.984 19.22H22.984ZM22.4536 20.4376C22.6007 20.2904 22.7275 20.0935 22.818 19.8975C22.9071 19.7044 22.984 19.4623 22.984 19.22H21.984C21.984 19.2657 21.9649 19.3596 21.91 19.4785C21.8565 19.5945 21.7913 19.6856 21.7464 19.7304L22.4536 20.4376ZM20.4376 22.4536L22.4536 20.4376L21.7464 19.7304L19.7304 21.7464L20.4376 22.4536ZM18.0024 22.4536C18.6777 23.1288 19.7623 23.1288 20.4376 22.4536L19.7304 21.7464C19.4457 22.0312 18.9943 22.0312 18.7096 21.7464L18.0024 22.4536ZM16.3704 20.8216L18.0024 22.4536L18.7096 21.7464L17.0776 20.1144L16.3704 20.8216ZM15.9221 20.7503C16.1021 20.6904 16.2625 20.7136 16.3704 20.8216L17.0776 20.1144C16.6095 19.6464 16.0019 19.6696 15.6059 19.8017L15.9221 20.7503ZM15.688 21.044C15.688 20.9347 15.7148 20.8757 15.7364 20.8461C15.7552 20.8202 15.7929 20.7842 15.8853 20.7611L15.6427 19.7909C15.3511 19.8638 15.1008 20.0198 14.9276 20.2579C14.7572 20.4923 14.688 20.7693 14.688 21.044H15.688ZM15.688 23.252V21.044H14.688V23.252H15.688ZM13.94 25C14.8881 25 15.688 24.2001 15.688 23.252H14.688C14.688 23.6479 14.3359 24 13.94 24V25ZM11.06 25H13.94V24H11.06V25ZM9.312 23.252C9.312 24.2001 10.1119 25 11.06 25V24C10.6641 24 10.312 23.6479 10.312 23.252H9.312ZM9.312 21.044V23.252H10.312V21.044H9.312ZM9.07789 20.7503C9.08129 20.7515 9.10201 20.7599 9.13515 20.7864C9.16709 20.812 9.20117 20.8469 9.232 20.888C9.26292 20.9292 9.28534 20.9697 9.29888 21.0032C9.31318 21.0386 9.312 21.0522 9.312 21.044H10.312C10.312 20.7523 10.1763 20.4804 10.032 20.288C9.88571 20.0929 9.66518 19.892 9.39411 19.8017L9.07789 20.7503ZM8.62955 20.8216C8.70795 20.7432 8.75781 20.7281 8.79603 20.7222C8.85262 20.7135 8.94288 20.7181 9.11473 20.7611L9.35727 19.7909C9.14512 19.7379 8.89938 19.6945 8.64397 19.7338C8.37019 19.7759 8.13205 19.9048 7.92245 20.1144L8.62955 20.8216ZM6.99755 22.4536L8.62955 20.8216L7.92245 20.1144L6.29045 21.7464L6.99755 22.4536ZM4.56245 22.4536C5.23771 23.1288 6.32229 23.1288 6.99755 22.4536L6.29045 21.7464C6.00571 22.0312 5.55429 22.0312 5.26955 21.7464L4.56245 22.4536ZM2.54645 20.4376L4.56245 22.4536L5.26955 21.7464L3.25355 19.7304L2.54645 20.4376ZM2.016 19.22C2.016 19.5706 2.12666 20.1694 2.62265 20.5L3.17735 19.668C3.14234 19.6446 3.10085 19.5974 3.06667 19.5085C3.03229 19.4191 3.016 19.3135 3.016 19.22H2.016ZM2.54645 18.0024C2.39932 18.1496 2.27246 18.3465 2.18202 18.5425C2.09288 18.7356 2.016 18.9777 2.016 19.22H3.016C3.016 19.1743 3.03512 19.0804 3.08998 18.9615C3.14354 18.8455 3.20868 18.7544 3.25355 18.7096L2.54645 18.0024ZM4.17845 16.3704L2.54645 18.0024L3.25355 18.7096L4.88555 17.0776L4.17845 16.3704ZM4.24966 15.9221C4.30965 16.1021 4.28639 16.2625 4.17845 16.3704L4.88555 17.0776C5.35361 16.6095 5.33035 16.0019 5.19834 15.6059L4.24966 15.9221ZM3.956 15.688C4.06533 15.688 4.12426 15.7148 4.15391 15.7364C4.17982 15.7552 4.21585 15.7929 4.23893 15.8853L5.20907 15.6427C5.13615 15.3511 4.98018 15.1008 4.74209 14.9276C4.50774 14.7572 4.23068 14.688 3.956 14.688V15.688ZM1.748 15.688H3.956V14.688H1.748V15.688ZM0 13.94C0 14.8881 0.799858 15.688 1.748 15.688V14.688C1.35214 14.688 1 14.3359 1 13.94H0ZM0 11.06V13.94H1V11.06H0ZM1.748 9.312C0.799858 9.312 0 10.1119 0 11.06H1C1 10.6641 1.35214 10.312 1.748 10.312V9.312ZM3.956 9.312H1.748V10.312H3.956V9.312ZM4.24966 9.07789C4.24852 9.08129 4.24008 9.10201 4.21357 9.13515C4.18801 9.16709 4.15311 9.20117 4.112 9.232C4.07077 9.26292 4.03029 9.28534 3.99677 9.29888C3.96137 9.31318 3.94783 9.312 3.956 9.312V10.312C4.24771 10.312 4.51957 10.1763 4.712 10.032C4.90706 9.88571 5.10799 9.66518 5.19834 9.39411L4.24966 9.07789ZM4.17845 8.62955C4.25685 8.70795 4.27193 8.75781 4.27781 8.79603C4.28652 8.85262 4.28189 8.94288 4.23893 9.11473L5.20907 9.35727C5.26211 9.14512 5.30548 8.89938 5.26619 8.64397C5.22407 8.37019 5.09515 8.13205 4.88555 7.92245L4.17845 8.62955ZM2.54645 6.99755L4.17845 8.62955L4.88555 7.92245L3.25355 6.29045L2.54645 6.99755ZM2.016 5.78C2.016 6.1306 2.12666 6.72936 2.62265 7.06003L3.17735 6.22797C3.14234 6.20464 3.10085 6.15738 3.06667 6.06851C3.03229 5.97912 3.016 5.87349 3.016 5.78H2.016ZM2.54645 4.56245C2.39932 4.70958 2.27246 4.90652 2.18202 5.10247C2.09288 5.29562 2.016 5.5377 2.016 5.78H3.016C3.016 5.7343 3.03512 5.64038 3.08998 5.52153C3.14354 5.40548 3.20868 5.31442 3.25355 5.26955L2.54645 4.56245ZM4.56245 2.54645L2.54645 4.56245L3.25355 5.26955L5.26955 3.25355L4.56245 2.54645ZM6.99755 2.54645C6.32229 1.87118 5.23771 1.87118 4.56245 2.54645L5.26955 3.25355C5.55429 2.96882 6.00571 2.96882 6.29045 3.25355L6.99755 2.54645ZM8.62955 4.17845L6.99755 2.54645L6.29045 3.25355L7.92245 4.88555L8.62955 4.17845ZM9.07789 4.24966C8.89792 4.30965 8.73749 4.28639 8.62955 4.17845L7.92245 4.88555C8.39051 5.35361 8.99808 5.33035 9.39411 5.19834L9.07789 4.24966ZM9.312 3.956C9.312 4.06533 9.2852 4.12426 9.26363 4.15391C9.24479 4.17982 9.20705 4.21585 9.11473 4.23893L9.35727 5.20907C9.64895 5.13615 9.89921 4.98018 10.0724 4.74209C10.2428 4.50774 10.312 4.23068 10.312 3.956H9.312ZM9.312 1.748V3.956H10.312V1.748H9.312ZM11.06 0C10.1119 0 9.312 0.799858 9.312 1.748H10.312C10.312 1.35214 10.6641 1 11.06 1V0ZM13.94 0H11.06V1H13.94V0ZM15.688 1.748C15.688 0.799858 14.8881 0 13.94 0V1C14.3359 1 14.688 1.35214 14.688 1.748H15.688ZM15.688 3.956V1.748H14.688V3.956H15.688ZM15.9221 4.24966C15.9187 4.24852 15.898 4.24008 15.8648 4.21357C15.8329 4.18801 15.7988 4.15311 15.768 4.112C15.7371 4.07077 15.7147 4.03029 15.7011 3.99677C15.6868 3.96137 15.688 3.94783 15.688 3.956H14.688C14.688 4.24771 14.8237 4.51957 14.968 4.712C15.1143 4.90706 15.3348 5.10799 15.6059 5.19834L15.9221 4.24966ZM16.3704 4.17845C16.292 4.25685 16.2422 4.27193 16.204 4.27781C16.1474 4.28652 16.0571 4.28189 15.8853 4.23893L15.6427 5.20907C15.8549 5.26211 16.1006 5.30548 16.356 5.26619C16.6298 5.22407 16.868 5.09515 17.0776 4.88555L16.3704 4.17845ZM18.0024 2.54645L16.3704 4.17845L17.0776 4.88555L18.7096 3.25355L18.0024 2.54645ZM20.4376 2.54645C19.7623 1.87118 18.6777 1.87118 18.0024 2.54645L18.7096 3.25355C18.9943 2.96882 19.4457 2.96882 19.7304 3.25355L20.4376 2.54645ZM22.4536 4.56245L20.4376 2.54645L19.7304 3.25355L21.7464 5.26955L22.4536 4.56245ZM22.984 5.78C22.984 5.4294 22.8733 4.83064 22.3773 4.49997L21.8227 5.33203C21.8577 5.35536 21.8991 5.40262 21.9333 5.49149C21.9677 5.58088 21.984 5.68651 21.984 5.78H22.984ZM22.4536 6.99755C22.6007 6.85042 22.7275 6.65348 22.818 6.45753C22.9071 6.26438 22.984 6.02229 22.984 5.78H21.984C21.984 5.82571 21.9649 5.91962 21.91 6.03847C21.8565 6.15452 21.7913 6.24558 21.7464 6.29045L22.4536 6.99755ZM20.8216 8.62955L22.4536 6.99755L21.7464 6.29045L20.1144 7.92245L20.8216 8.62955ZM20.7503 9.07789C20.6904 8.89792 20.7136 8.73749 20.8216 8.62955L20.1144 7.92245C19.6464 8.39051 19.6696 8.99808 19.8017 9.39411L20.7503 9.07789ZM21.044 9.312C20.9347 9.312 20.8757 9.2852 20.8461 9.26363C20.8202 9.24479 20.7842 9.20705 20.7611 9.11473L19.7909 9.35727C19.8638 9.64895 20.0198 9.89921 20.2579 10.0724C20.4923 10.2428 20.7693 10.312 21.044 10.312V9.312ZM23.136 13.94C23.136 13.9048 23.1446 13.8809 23.1499 13.8696C23.1552 13.8583 23.1601 13.8528 23.1624 13.8504C23.1648 13.8481 23.1703 13.8432 23.1816 13.8379C23.1929 13.8326 23.2168 13.824 23.252 13.824V14.824C23.5106 14.824 23.7274 14.6997 23.8696 14.5576C24.0117 14.4154 24.136 14.1986 24.136 13.94H23.136ZM23.136 11.06V13.94H24.136V11.06H23.136ZM23.252 11.176C23.2168 11.176 23.1929 11.1674 23.1816 11.1621C23.1703 11.1568 23.1648 11.1519 23.1624 11.1496C23.1601 11.1472 23.1552 11.1417 23.1499 11.1304C23.1446 11.1191 23.136 11.0952 23.136 11.06H24.136C24.136 10.8014 24.0117 10.5846 23.8696 10.4424C23.7274 10.3003 23.5106 10.176 23.252 10.176V11.176ZM21.044 11.176H23.252V10.176H21.044V11.176ZM18.9524 9.81696C19.3208 10.6765 20.08 11.176 21.044 11.176V10.176C20.472 10.176 20.0792 9.90751 19.8716 9.42304L18.9524 9.81696ZM19.4424 7.34645C18.8299 7.95897 18.5774 8.94186 18.9524 9.81696L19.8716 9.42304C19.6706 8.95414 19.8021 8.40103 20.1496 8.05355L19.4424 7.34645ZM21.0744 5.71445L19.4424 7.34645L20.1496 8.05355L21.7816 6.42155L21.0744 5.71445ZM21.0744 5.94155C21.043 5.91015 21.0253 5.88097 21.0162 5.86353C21.0069 5.84562 21.0028 5.83268 21.0012 5.82736C20.9985 5.81795 21 5.81889 21 5.828C21 5.83711 20.9985 5.83805 21.0012 5.82864C21.0028 5.82332 21.0069 5.81038 21.0162 5.79247C21.0253 5.77503 21.043 5.74585 21.0744 5.71445L21.7816 6.42155C21.888 6.3151 21.938 6.19001 21.9628 6.10336C21.9894 6.00995 22 5.91489 22 5.828C22 5.74111 21.9894 5.64605 21.9628 5.55264C21.938 5.46599 21.888 5.3409 21.7816 5.23445L21.0744 5.94155ZM19.0584 3.92555L21.0744 5.94155L21.7816 5.23445L19.7656 3.21845L19.0584 3.92555ZM19.2856 3.92555C19.2542 3.95695 19.225 3.97469 19.2075 3.98379C19.1896 3.99314 19.1767 3.99724 19.1714 3.99876C19.162 4.00145 19.1629 4 19.172 4C19.1811 4 19.182 4.00145 19.1726 3.99876C19.1673 3.99724 19.1544 3.99314 19.1365 3.98379C19.119 3.97469 19.0898 3.95695 19.0584 3.92555L19.7656 3.21845C19.6591 3.112 19.534 3.062 19.4474 3.03724C19.354 3.01055 19.2589 3 19.172 3C19.0851 3 18.99 3.01055 18.8966 3.03724C18.81 3.062 18.6849 3.112 18.5784 3.21845L19.2856 3.92555ZM17.6536 5.55755L19.2856 3.92555L18.5784 3.21845L16.9464 4.85045L17.6536 5.55755ZM15.183 6.04757C16.0581 6.42262 17.041 6.17008 17.6536 5.55755L16.9464 4.85045C16.599 5.19792 16.0459 5.32938 15.577 5.12843L15.183 6.04757ZM13.824 3.956C13.824 4.91997 14.3235 5.6792 15.183 6.04757L15.577 5.12843C15.0925 4.9208 14.824 4.52803 14.824 3.956H13.824ZM13.824 1.748V3.956H14.824V1.748H13.824ZM13.94 1.864C13.9048 1.864 13.8809 1.85538 13.8696 1.85009C13.8583 1.84482 13.8528 1.83994 13.8504 1.83755C13.8481 1.83516 13.8432 1.82974 13.8379 1.81844C13.8326 1.80712 13.824 1.78323 13.824 1.748H14.824C14.824 1.48938 14.6997 1.27262 14.5576 1.13045C14.4154 0.988274 14.1986 0.864 13.94 0.864V1.864ZM11.06 1.864H13.94V0.864H11.06V1.864ZM11.176 1.748C11.176 1.78323 11.1674 1.80711 11.1621 1.81844C11.1568 1.82974 11.1519 1.83516 11.1496 1.83755C11.1472 1.83994 11.1417 1.84482 11.1304 1.85009C11.1191 1.85538 11.0952 1.864 11.06 1.864V0.864C10.8014 0.864 10.5846 0.988274 10.4424 1.13045C10.3003 1.27262 10.176 1.48938 10.176 1.748H11.176ZM11.176 3.956V1.748H10.176V3.956H11.176ZM9.81696 6.04757C10.6765 5.6792 11.176 4.91997 11.176 3.956H10.176C10.176 4.52803 9.90751 4.9208 9.42304 5.12843L9.81696 6.04757ZM7.34645 5.55755C7.95897 6.17008 8.94186 6.42262 9.81696 6.04757L9.42304 5.12843C8.95414 5.32938 8.40103 5.19792 8.05355 4.85045L7.34645 5.55755ZM5.71445 3.92555L7.34645 5.55755L8.05355 4.85045L6.42155 3.21845L5.71445 3.92555ZM5.94155 3.92555C5.91015 3.95695 5.88097 3.97469 5.86353 3.98379C5.84562 3.99314 5.83268 3.99724 5.82736 3.99876C5.81795 4.00145 5.81889 4 5.828 4C5.83711 4 5.83805 4.00145 5.82864 3.99876C5.82332 3.99724 5.81038 3.99314 5.79247 3.98379C5.77503 3.97469 5.74585 3.95695 5.71445 3.92555L6.42155 3.21845C6.3151 3.112 6.19001 3.062 6.10336 3.03724C6.00995 3.01055 5.91489 3 5.828 3C5.74111 3 5.64605 3.01055 5.55264 3.03724C5.46599 3.062 5.3409 3.112 5.23445 3.21845L5.94155 3.92555ZM3.92555 5.94155L5.94155 3.92555L5.23445 3.21845L3.21845 5.23445L3.92555 5.94155ZM3.92555 5.71445C3.95695 5.74585 3.97469 5.77503 3.98379 5.79247C3.99314 5.81038 3.99724 5.82332 3.99876 5.82864C4.00145 5.83805 4 5.83711 4 5.828C4 5.81889 4.00145 5.81795 3.99876 5.82736C3.99724 5.83268 3.99314 5.84562 3.98379 5.86353C3.97469 5.88097 3.95695 5.91015 3.92555 5.94155L3.21845 5.23445C3.112 5.3409 3.062 5.46599 3.03724 5.55264C3.01055 5.64605 3 5.74111 3 5.828C3 5.91489 3.01055 6.00995 3.03724 6.10336C3.062 6.19001 3.112 6.3151 3.21845 6.42155L3.92555 5.71445ZM5.55755 7.34645L3.92555 5.71445L3.21845 6.42155L4.85045 8.05355L5.55755 7.34645ZM6.04757 9.81696C6.42262 8.94186 6.17008 7.95897 5.55755 7.34645L4.85045 8.05355C5.19792 8.40103 5.32938 8.95414 5.12843 9.42304L6.04757 9.81696ZM3.956 11.176C4.91997 11.176 5.6792 10.6765 6.04757 9.81696L5.12843 9.42304C4.9208 9.90751 4.52803 10.176 3.956 10.176V11.176ZM1.748 11.176H3.956V10.176H1.748V11.176ZM1.864 11.06C1.864 11.0952 1.85538 11.1191 1.85009 11.1304C1.84482 11.1417 1.83994 11.1472 1.83755 11.1496C1.83516 11.1519 1.82974 11.1568 1.81844 11.1621C1.80711 11.1674 1.78323 11.176 1.748 11.176V10.176C1.48938 10.176 1.27262 10.3003 1.13045 10.4424C0.988274 10.5846 0.864 10.8014 0.864 11.06H1.864ZM1.864 13.94V11.06H0.864V13.94H1.864ZM1.748 13.824C1.78323 13.824 1.80712 13.8326 1.81844 13.8379C1.82974 13.8432 1.83516 13.8481 1.83755 13.8504C1.83994 13.8528 1.84482 13.8583 1.85009 13.8696C1.85538 13.8809 1.864 13.9048 1.864 13.94H0.864C0.864 14.1986 0.988274 14.4154 1.13045 14.5576C1.27262 14.6997 1.48938 14.824 1.748 14.824V13.824ZM3.956 13.824H1.748V14.824H3.956V13.824ZM6.04757 15.183C5.6792 14.3235 4.91997 13.824 3.956 13.824V14.824C4.52803 14.824 4.9208 15.0925 5.12843 15.577L6.04757 15.183ZM5.55755 17.6536C6.17008 17.041 6.42262 16.0581 6.04757 15.183L5.12843 15.577C5.32938 16.0459 5.19792 16.599 4.85045 16.9464L5.55755 17.6536ZM3.92555 19.2856L5.55755 17.6536L4.85045 16.9464L3.21845 18.5784L3.92555 19.2856ZM3.92555 19.0584C3.95695 19.0898 3.97469 19.119 3.98379 19.1365C3.99314 19.1544 3.99724 19.1673 3.99876 19.1726C4.00145 19.182 4 19.1811 4 19.172C4 19.1629 4.00145 19.162 3.99876 19.1714C3.99724 19.1767 3.99314 19.1896 3.98379 19.2075C3.97469 19.225 3.95695 19.2542 3.92555 19.2856L3.21845 18.5784C3.112 18.6849 3.062 18.81 3.03724 18.8966C3.01055 18.99 3 19.0851 3 19.172C3 19.2589 3.01055 19.354 3.03724 19.4474C3.062 19.534 3.112 19.6591 3.21845 19.7656L3.92555 19.0584ZM5.94155 21.0744L3.92555 19.0584L3.21845 19.7656L5.23445 21.7816L5.94155 21.0744ZM5.71445 21.0744C5.74585 21.043 5.77503 21.0253 5.79247 21.0162C5.81038 21.0069 5.82332 21.0028 5.82864 21.0012C5.83805 20.9985 5.83711 21 5.828 21C5.81889 21 5.81795 20.9985 5.82736 21.0012C5.83268 21.0028 5.84562 21.0069 5.86353 21.0162C5.88097 21.0253 5.91015 21.043 5.94155 21.0744L5.23445 21.7816C5.3409 21.888 5.46599 21.938 5.55264 21.9628C5.64605 21.9894 5.74111 22 5.828 22C5.91489 22 6.00995 21.9894 6.10336 21.9628C6.19001 21.938 6.3151 21.888 6.42155 21.7816L5.71445 21.0744ZM7.34645 19.4424L5.71445 21.0744L6.42155 21.7816L8.05355 20.1496L7.34645 19.4424ZM8.948 18.816C8.31646 18.816 7.82787 19.0751 7.4 19.396L8 20.196C8.34013 19.9409 8.61954 19.816 8.948 19.816V18.816ZM9.84361 18.9648C9.66741 18.8767 9.47676 18.8448 9.33375 18.8305C9.18528 18.8156 9.04121 18.816 8.948 18.816V19.816C9.04679 19.816 9.14272 19.8164 9.23425 19.8255C9.33124 19.8352 9.38059 19.8513 9.39639 19.8592L9.84361 18.9648ZM11.176 21.044C11.176 20.08 10.6765 19.3208 9.81696 18.9524L9.42304 19.8716C9.90751 20.0792 10.176 20.472 10.176 21.044H11.176ZM11.176 23.252V21.044H10.176V23.252H11.176ZM11.06 23.136C11.0952 23.136 11.1191 23.1446 11.1304 23.1499C11.1417 23.1552 11.1472 23.1601 11.1496 23.1624C11.1519 23.1648 11.1568 23.1703 11.1621 23.1816C11.1674 23.1929 11.176 23.2168 11.176 23.252H10.176C10.176 23.5106 10.3003 23.7274 10.4424 23.8696C10.5846 24.0117 10.8014 24.136 11.06 24.136V23.136ZM13.94 23.136H11.06V24.136H13.94V23.136ZM13.824 23.252C13.824 23.2168 13.8326 23.1929 13.8379 23.1816C13.8432 23.1703 13.8481 23.1648 13.8504 23.1624C13.8528 23.1601 13.8583 23.1552 13.8696 23.1499C13.8809 23.1446 13.9048 23.136 13.94 23.136V24.136C14.1986 24.136 14.4154 24.0117 14.5576 23.8696C14.6997 23.7274 14.824 23.5106 14.824 23.252H13.824ZM13.824 21.044V23.252H14.824V21.044H13.824ZM15.183 18.9524C14.3235 19.3208 13.824 20.08 13.824 21.044H14.824C14.824 20.472 15.0925 20.0792 15.577 19.8716L15.183 18.9524ZM17.6536 19.4424C17.041 18.8299 16.0581 18.5774 15.183 18.9524L15.577 19.8716C16.0459 19.6706 16.599 19.8021 16.9464 20.1496L17.6536 19.4424ZM19.2856 21.0744L17.6536 19.4424L16.9464 20.1496L18.5784 21.7816L19.2856 21.0744ZM19.0585 21.0744C19.0899 21.043 19.119 21.0253 19.1365 21.0162C19.1544 21.0069 19.1673 21.0028 19.1726 21.0012C19.182 20.9985 19.1811 21 19.172 21C19.1629 21 19.162 20.9985 19.1714 21.0012C19.1767 21.0028 19.1896 21.0069 19.2075 21.0162C19.225 21.0253 19.2542 21.043 19.2856 21.0744L18.5784 21.7816C18.6849 21.888 18.81 21.938 18.8966 21.9628C18.99 21.9894 19.0851 22 19.172 22C19.2589 22 19.354 21.9894 19.4474 21.9628C19.534 21.938 19.6591 21.888 19.7656 21.7816L19.0585 21.0744ZM21.0744 19.0584L19.0584 21.0744L19.7656 21.7816L21.7816 19.7656L21.0744 19.0584ZM21.0744 19.2856C21.043 19.2542 21.0253 19.225 21.0162 19.2075C21.0069 19.1896 21.0028 19.1767 21.0012 19.1714C20.9985 19.162 21 19.1629 21 19.172C21 19.1811 20.9985 19.182 21.0012 19.1726C21.0028 19.1673 21.0069 19.1544 21.0162 19.1365C21.0253 19.119 21.043 19.0899 21.0744 19.0585L21.7816 19.7656C21.888 19.6591 21.938 19.534 21.9628 19.4474C21.9894 19.354 22 19.2589 22 19.172C22 19.0851 21.9894 18.99 21.9628 18.8966C21.938 18.81 21.888 18.6849 21.7816 18.5784L21.0744 19.2856ZM19.4424 17.6536L21.0744 19.2856L21.7816 18.5784L20.1496 16.9464L19.4424 17.6536ZM18.9524 15.183C18.5774 16.0581 18.8299 17.041 19.4424 17.6536L20.1496 16.9464C19.8021 16.599 19.6706 16.0459 19.8716 15.577L18.9524 15.183ZM21.044 13.824C20.08 13.824 19.3208 14.3235 18.9524 15.183L19.8716 15.577C20.0792 15.0925 20.472 14.824 21.044 14.824V13.824ZM23.252 13.824H21.044V14.824H23.252V13.824Z" fill="black"/>
<path fill-rule="evenodd" clip-rule="evenodd" d="M8.46802 12.5C8.46802 10.292 10.292 8.46799 12.5 8.46799C14.708 8.46799 16.532 10.292 16.532 12.5C16.532 14.708 14.708 16.532 12.5 16.532C10.292 16.532 8.46802 14.708 8.46802 12.5ZM9.42802 12.5C9.42802 14.132 10.772 15.572 12.5 15.572C14.228 15.572 15.572 14.132 15.572 12.5C15.572 10.868 14.132 9.42799 12.5 9.42799C10.868 9.42799 9.42802 10.868 9.42802 12.5Z" fill="black"/>
<path d="M12.5 8.17999C10.133 8.17999 8.18002 10.1329 8.18002 12.5H8.75602C8.75602 10.451 10.4511 8.75599 12.5 8.75599V8.17999ZM16.82 12.5C16.82 10.1329 14.8671 8.17999 12.5 8.17999V8.75599C14.549 8.75599 16.244 10.451 16.244 12.5H16.82ZM12.5 16.82C14.8671 16.82 16.82 14.867 16.82 12.5H16.244C16.244 14.5489 14.549 16.244 12.5 16.244V16.82ZM8.18002 12.5C8.18002 14.867 10.133 16.82 12.5 16.82V16.244C10.4511 16.244 8.75602 14.5489 8.75602 12.5H8.18002ZM12.5 15.284C10.9369 15.284 9.71602 13.9788 9.71602 12.5H9.14002C9.14002 14.2852 10.6072 15.86 12.5 15.86V15.284ZM15.284 12.5C15.284 13.9788 14.0632 15.284 12.5 15.284V15.86C14.3929 15.86 15.86 14.2852 15.86 12.5H15.284ZM12.5 9.71599C13.973 9.71599 15.284 11.027 15.284 12.5H15.86C15.86 10.7089 14.2911 9.13999 12.5 9.13999V9.71599ZM9.71602 12.5C9.71602 11.027 11.0271 9.71599 12.5 9.71599V9.13999C10.709 9.13999 9.14002 10.7089 9.14002 12.5H9.71602Z" fill="black"/>
</svg>
