<svg width="29" height="29" viewBox="0 0 29 29" fill="none" xmlns="http://www.w3.org/2000/svg">
<path fill-rule="evenodd" clip-rule="evenodd" d="M28.7154 10.9797L20.1013 2.3233C17.0033 -0.774433 11.9967 -0.774433 8.89871 2.3233L0.284547 10.9797C0.00706113 11.2565 -0.0762981 11.6745 0.0736011 12.0373C0.2235 12.4002 0.576891 12.636 0.967882 12.634H2.42773V22.0707C2.43344 25.8952 5.5173 28.9942 9.3232 29H10.8038C11.3372 28.9943 11.7667 28.5581 11.7666 28.022V20.0731H17.2333V28.022C17.2333 28.5581 17.6627 28.9943 18.1962 29H19.6768C23.4827 28.9942 26.5665 25.8952 26.5722 22.0707V12.634H28.0321C28.4231 12.636 28.7765 12.4002 28.9264 12.0373C29.0763 11.6745 28.9929 11.2565 28.7154 10.9797ZM10.2629 3.69881C11.3854 2.56916 12.9089 1.93439 14.4975 1.93439C16.0861 1.93439 17.6096 2.56916 18.7321 3.69881L25.6897 10.6905H3.30531L10.2629 3.69881ZM19.6894 27.0555C22.426 27.0498 24.643 24.8219 24.6487 22.0719V12.6352H4.37645V22.0719C4.38215 24.8219 6.59919 27.0498 9.33581 27.0555H9.84313V19.0963C9.84881 18.5602 10.2829 18.1286 10.8164 18.1287H18.2088C18.7423 18.1286 19.1764 18.5602 19.182 19.0963V27.0555H19.6894Z" fill="black"/>
<path d="M28.7154 10.9797L20.1013 2.3233C17.0033 -0.774433 11.9967 -0.774433 8.89871 2.3233L0.284547 10.9797C0.00706113 11.2565 -0.0762981 11.6745 0.0736011 12.0373C0.2235 12.4002 0.576891 12.636 0.967882 12.634H2.42773V22.0707C2.43344 25.8952 5.5173 28.9942 9.3232 29H10.8038C11.3372 28.9943 11.7667 28.5581 11.7666 28.022V20.0731H17.2333V28.022C17.2333 28.5581 17.6627 28.9943 18.1962 29H19.6768C23.4827 28.9942 26.5665 25.8952 26.5722 22.0707V12.634H28.0321C28.4231 12.636 28.7765 12.4002 28.9264 12.0373C29.0763 11.6745 28.9929 11.2565 28.7154 10.9797Z" fill="black"/>
</svg>
