<svg width="48" height="46" viewBox="0 0 48 46" fill="none" xmlns="http://www.w3.org/2000/svg">
<g filter="url(#filter0_d_1_1358)">
<path d="M31.832 26.3754L31.8318 26.3742L30.9318 21.3935L34.7187 17.8091C34.7197 17.8082 34.7207 17.8073 34.7217 17.8063C35.4672 17.1046 35.7421 16.0354 35.4234 15.06L35.4191 15.0467L35.4145 15.0335C35.0845 14.084 34.2519 13.3951 33.2538 13.2518C33.2532 13.2517 33.2525 13.2516 33.2519 13.2515L28.2038 12.5192L25.9428 7.96458L25.9379 7.9547L25.9329 7.9449C25.5176 7.13838 24.7243 6.601 23.8277 6.50801L23.7506 6.50001H23.673H23.2299H22.9331L22.6587 6.61299L22.5068 6.67556L22.4194 6.70761L22.2949 6.7533L22.1804 6.82012C22.037 6.90377 21.899 7.00539 21.7713 7.12653L21.7511 7.14228L21.6886 7.19089L21.6315 7.24582C21.4199 7.44961 21.2544 7.68055 21.1307 7.91847L21.1218 7.93558L21.1133 7.95292L18.89 12.5111L13.7835 13.2519L13.7746 13.2532L13.7657 13.2546C12.7801 13.4098 11.965 14.0984 11.6443 15.0392C11.3099 16.0084 11.5683 17.0801 12.3018 17.7918L12.3023 17.7923L15.9729 21.3501L15.07 26.3413L15.0677 26.3541L15.0656 26.3669C14.8327 27.7956 15.781 29.1507 17.204 29.4199L17.2246 29.4238L17.2452 29.4271C17.8142 29.5184 18.3937 29.4268 18.9035 29.1707L18.9149 29.1649L18.9263 29.159L23.4 26.8151L27.9508 29.1887C28.8403 29.6612 29.9263 29.5938 30.751 29.0004C31.5902 28.4114 32.0142 27.3882 31.832 26.3754Z" fill="#FCE23C" stroke="white" stroke-width="3"/>
</g>
<defs>
<filter id="filter0_d_1_1358" x="0" y="0" width="47.0543" height="46" filterUnits="userSpaceOnUse" color-interpolation-filters="sRGB">
<feFlood flood-opacity="0" result="BackgroundImageFix"/>
<feColorMatrix in="SourceAlpha" type="matrix" values="0 0 0 0 0 0 0 0 0 0 0 0 0 0 0 0 0 0 127 0" result="hardAlpha"/>
<feOffset dy="5"/>
<feGaussianBlur stdDeviation="5"/>
<feColorMatrix type="matrix" values="0 0 0 0 0.278679 0 0 0 0 0.675 0 0 0 0 0.27 0 0 0 0.2 0"/>
<feBlend mode="normal" in2="BackgroundImageFix" result="effect1_dropShadow_1_1358"/>
<feBlend mode="normal" in="SourceGraphic" in2="effect1_dropShadow_1_1358" result="shape"/>
</filter>
</defs>
</svg>
