<svg width="134" height="134" viewBox="0 0 134 134" fill="none" xmlns="http://www.w3.org/2000/svg">
<path d="M66.0016 0.929703C66.09 -0.309942 67.91 -0.309926 67.9984 0.929719L70.1127 30.5844C70.1916 31.6914 71.7453 31.8665 72.0686 30.8048L80.7286 2.36408C81.0907 1.17518 82.865 1.58019 82.6753 2.80842L78.1378 32.1901C77.9685 33.2869 79.4442 33.8033 79.9957 32.8401L94.7673 7.03954C95.3847 5.96101 97.0245 6.75068 96.5663 7.90591L85.6045 35.5412C85.1953 36.5728 86.5192 37.4047 87.2711 36.5884L107.414 14.7217C108.256 13.8076 109.678 14.9423 108.975 15.9666L92.1383 40.4698C91.5098 41.3845 92.6153 42.4901 93.53 41.8616L118.033 25.0252C119.058 24.3214 120.192 25.7444 119.278 26.5864L97.4115 46.7288C96.5952 47.4807 97.4271 48.8046 98.4587 48.3954L126.094 37.4336C127.249 36.9754 128.039 38.6151 126.96 39.2326L101.16 54.0042C100.197 54.5556 100.713 56.0314 101.81 55.862L131.191 51.3245C132.42 51.1349 132.825 52.9092 131.636 53.2712L103.195 61.9313C102.133 62.2546 102.308 63.8083 103.415 63.8872L133.07 66.0015C134.31 66.0899 134.31 67.9099 133.07 67.9983L103.415 70.1126C102.308 70.1915 102.133 71.7452 103.195 72.0684L131.636 80.7285C132.825 81.0905 132.42 82.8649 131.191 82.6752L101.81 78.1377C100.713 77.9683 100.197 79.4441 101.16 79.9955L126.96 94.7671C128.039 95.3846 127.249 97.0244 126.094 96.5661L98.4587 85.6044C97.427 85.1952 96.5952 86.5191 97.4115 87.271L119.278 107.413C120.192 108.255 119.058 109.678 118.033 108.975L93.53 92.1381C92.6153 91.5096 91.5098 92.6152 92.1383 93.5299L108.975 118.033C109.678 119.057 108.256 120.192 107.413 119.278L87.2711 97.4114C86.5192 96.5951 85.1953 97.4269 85.6045 98.4585L96.5663 126.094C97.0245 127.249 95.3847 128.039 94.7673 126.96L79.9957 101.16C79.4442 100.196 77.9685 100.713 78.1378 101.81L82.6753 131.191C82.865 132.42 81.0907 132.825 80.7286 131.636L72.0686 103.195C71.7453 102.133 70.1916 102.308 70.1127 103.415L67.9984 133.07C67.91 134.31 66.09 134.31 66.0016 133.07L63.8873 103.415C63.8084 102.308 62.2547 102.133 61.9314 103.195L53.2714 131.636C52.9093 132.825 51.135 132.42 51.3247 131.191L55.8622 101.81C56.0315 100.713 54.5558 100.196 54.0043 101.16L39.2327 126.96C38.6152 128.039 36.9755 127.249 37.4337 126.094L48.3955 98.4585C48.8047 97.4269 47.4808 96.5951 46.7289 97.4114L26.5865 119.278C25.7445 120.192 24.3216 119.057 25.0254 118.033L41.8617 93.5299C42.4902 92.6152 41.3847 91.5096 40.47 92.1381L15.9667 108.975C14.9424 109.678 13.8077 108.255 14.7218 107.413L36.5885 87.271C37.4048 86.5191 36.5729 85.1952 35.5413 85.6044L7.90602 96.5662C6.75079 97.0244 5.96114 95.3846 7.03967 94.7671L32.8403 79.9955C33.8034 79.4441 33.287 77.9683 32.1902 78.1377L2.80852 82.6752C1.58029 82.8649 1.17532 81.0905 2.36422 80.7285L30.8049 72.0684C31.8666 71.7452 31.6915 70.1915 30.5845 70.1126L0.929826 67.9983C-0.309819 67.9099 -0.309804 66.0899 0.929841 66.0015L30.5845 63.8872C31.6915 63.8083 31.8666 62.2546 30.8049 61.9313L2.3642 53.2712C1.1753 52.9092 1.58031 51.1349 2.80854 51.3245L32.1902 55.862C33.287 56.0314 33.8034 54.5556 32.8403 54.0042L7.03966 39.2326C5.96112 38.6151 6.7508 36.9754 7.90603 37.4336L35.5413 48.3954C36.573 48.8046 37.4048 47.4807 36.5885 46.7288L14.7218 26.5864C13.8077 25.7444 14.9425 24.3214 15.9668 25.0252L40.47 41.8616C41.3847 42.4901 42.4902 41.3845 41.8617 40.4698L25.0254 15.9666C24.3216 14.9423 25.7445 13.8076 26.5865 14.7217L46.7289 36.5884C47.4808 37.4047 48.8047 36.5728 48.3955 35.5412L37.4337 7.9059C36.9755 6.75067 38.6153 5.96101 39.2327 7.03955L54.0043 32.8401C54.5558 33.8033 56.0315 33.2869 55.8622 32.1901L51.3247 2.8084C51.135 1.58017 52.9093 1.1752 53.2714 2.36409L61.9314 30.8048C62.2547 31.8665 63.8084 31.6914 63.8873 30.5844L66.0016 0.929703Z" fill="#FEFCFA" fill-opacity="0.1"/>
</svg>
