<svg width="39" height="39" viewBox="0 0 39 39" fill="none" xmlns="http://www.w3.org/2000/svg">
<path d="M37.1262 14.9525L33.8813 16.8264C34.2088 18.5936 34.2088 20.4065 33.8813 22.1736L37.1262 24.0475C37.4994 24.2608 37.667 24.7025 37.5451 25.1139C36.6996 27.8256 35.26 30.2783 33.3785 32.3197C33.0891 32.632 32.6168 32.7082 32.2512 32.4949L29.0063 30.6211C27.6428 31.7941 26.0737 32.7006 24.375 33.2947V37.0348C24.375 37.4613 24.078 37.8346 23.659 37.926C20.8635 38.5506 17.9994 38.5201 15.341 37.926C14.9221 37.8346 14.625 37.4613 14.625 37.0348V33.2871C12.934 32.6854 11.3649 31.7789 9.99378 30.6135L6.75647 32.4873C6.38323 32.7006 5.91858 32.632 5.62913 32.3121C3.74768 30.2783 2.30803 27.8256 1.46253 25.1063C1.33303 24.6949 1.50823 24.2531 1.88147 24.0399L5.12639 22.166C4.79885 20.3988 4.79885 18.5859 5.12639 16.8188L1.88147 14.9449C1.50823 14.7317 1.34065 14.2899 1.46253 13.8785C2.30803 11.1668 3.74768 8.71407 5.62913 6.67267C5.91858 6.36036 6.39085 6.28419 6.75647 6.49747L10.0014 8.3713C11.3649 7.19825 12.934 6.29181 14.6326 5.69767V1.95001C14.6326 1.52345 14.9297 1.15021 15.3487 1.0588C18.1442 0.434189 21.0082 0.464661 23.6666 1.0588C24.0856 1.15021 24.3826 1.52345 24.3826 1.95001V5.69767C26.0737 6.29942 27.6428 7.20587 29.0139 8.3713L32.2588 6.49747C32.6321 6.28419 33.0967 6.35275 33.3862 6.67267C35.2676 8.70646 36.7073 11.1592 37.5528 13.8785C37.667 14.2975 37.4994 14.7393 37.1262 14.9525ZM19.5 13.4063C16.1408 13.4063 13.4063 16.1408 13.4063 19.5C13.4063 22.8592 16.1408 25.5938 19.5 25.5938C22.8592 25.5938 25.5938 22.8592 25.5938 19.5C25.5938 16.1408 22.8592 13.4063 19.5 13.4063Z" fill="#D9D8D8"/>
</svg>
