<svg width="46" height="121" viewBox="0 0 46 121" fill="none" xmlns="http://www.w3.org/2000/svg">
<path d="M34.7656 96.7394L36.1556 97.3226L34.7656 96.7394ZM21.533 48.0861L20.8852 49.4472L20.8852 49.4472L21.533 48.0861ZM1.541 59.382L3.04498 59.2803L3.04498 59.2803L1.541 59.382ZM21.9471 75.438L21.8002 73.9378L21.8002 73.9378L21.9471 75.438ZM42.7453 37.2327L44.1987 36.8329L44.1987 36.8329L42.7453 37.2327ZM7.09194 0.0802099C6.3035 -0.1871 5.44765 0.235356 5.18034 1.02379C4.91303 1.81223 5.33549 2.66808 6.12392 2.93539L7.09194 0.0802099ZM6.06113 109.943L19.504 121L22.3583 103.83L6.06113 109.943ZM36.1556 97.3226C45.0378 76.152 37.7378 54.1292 22.1808 46.725L20.8852 49.4472C34.6097 55.9793 41.8111 76.0501 33.3756 96.1562L36.1556 97.3226ZM22.1808 46.725C18.6299 45.0349 12.9909 44.8293 8.33296 46.6323C5.96977 47.5471 3.76761 49.0127 2.21318 51.1658C0.644699 53.3384 -0.190827 56.1111 0.0370229 59.4836L3.04498 59.2803C2.86052 56.55 3.53428 54.4864 4.65754 52.9305C5.79486 51.3552 7.46691 50.2003 9.42124 49.4439C13.3983 47.9044 18.1677 48.1537 20.8852 49.4472L22.1808 46.725ZM0.0370229 59.4836C0.849573 71.5106 12.1835 77.9087 22.094 76.9382L21.8002 73.9378C13.1013 74.7896 3.71277 69.1647 3.04498 59.2803L0.0370229 59.4836ZM22.094 76.9382C32.4531 75.924 39.3236 70.4447 42.8964 62.856C46.4333 55.3434 46.6895 45.8888 44.1987 36.8329L41.2918 37.6324C43.642 46.1773 43.3272 54.8631 40.1687 61.5718C37.0461 68.2045 31.0971 73.0275 21.8002 73.9378L22.094 76.9382ZM44.1987 36.8329C38.6626 16.7054 23.888 5.77469 7.09194 0.0802099L6.12392 2.93539C22.2999 8.41963 36.1011 18.7606 41.2918 37.6324L44.1987 36.8329ZM19.7731 113.639C25.5903 112.34 31.7036 107.934 36.1556 97.3226L33.3756 96.1562C29.2147 106.074 23.7795 109.655 19.116 110.696L19.7731 113.639Z" fill="black"/>
</svg>
