<svg width="214" height="42" viewBox="0 0 214 42" fill="none" xmlns="http://www.w3.org/2000/svg">
<path d="M200.667 30.3333C205.695 30.3333 208.209 30.3333 209.771 28.7706C211.333 27.2093 211.333 24.6946 211.333 19.6666C211.333 14.6386 211.333 12.1239 209.771 10.5626C208.209 8.99994 205.695 8.99994 200.667 8.99994H195.333C190.305 8.99994 187.791 8.99994 186.229 10.5626C184.667 12.1239 184.667 14.6386 184.667 19.6666C184.667 24.6946 184.667 27.2093 186.229 28.7706C187.1 29.6426 188.267 30.0279 190 30.1973" stroke="#FE8235" stroke-width="2.6" stroke-linecap="round" stroke-linejoin="round"/>
<path d="M200.667 30.3333C199.019 30.3333 197.203 31 195.545 31.86C192.881 33.2426 191.549 33.9346 190.893 33.4933C190.237 33.0533 190.361 31.6866 190.611 28.9546L190.667 28.3333" stroke="#FE8235" stroke-width="2.6" stroke-linecap="round"/>
<path d="M111 18L118.968 14.017C119.234 13.8837 119.531 13.8208 119.829 13.8342C120.127 13.8476 120.416 13.9369 120.67 14.0937C120.923 14.2504 121.133 14.4693 121.278 14.7297C121.423 14.9901 121.5 15.2833 121.5 15.5815V27.4185C121.5 27.7167 121.423 28.0099 121.278 28.2703C121.133 28.5307 120.923 28.7496 120.67 28.9063C120.416 29.0631 120.127 29.1524 119.829 29.1658C119.531 29.1792 119.234 29.1163 118.968 28.983L111 25V18ZM93.5 32H107.5C108.428 32 109.318 31.6313 109.975 30.9749C110.631 30.3185 111 29.4283 111 28.5V14.5C111 13.5717 110.631 12.6815 109.975 12.0251C109.318 11.3687 108.428 11 107.5 11H93.5C92.5717 11 91.6815 11.3687 91.0251 12.0251C90.3687 12.6815 90 13.5717 90 14.5V28.5C90 29.4283 90.3687 30.3185 91.0251 30.9749C91.6815 31.6313 92.5717 32 93.5 32Z" stroke="#D9D8D8" stroke-width="2.6" stroke-linecap="round" stroke-linejoin="round"/>
<path fill-rule="evenodd" clip-rule="evenodd" d="M27.7253 17.6011L19.4081 9.24319C16.417 6.25227 11.583 6.25227 8.59187 9.24319L0.274736 17.6011C0.00681765 17.8684 -0.0736672 18.2719 0.0710632 18.6223C0.215794 18.9727 0.556999 19.2003 0.934508 19.1983H2.34402V28.3097C2.34953 32.0023 5.32706 34.9945 9.00172 35H10.4312C10.9463 34.9945 11.3609 34.5733 11.3609 34.0557V26.3809H16.6391V34.0557C16.6391 34.5733 17.0537 34.9945 17.5688 35H18.9983C22.6729 34.9945 25.6505 32.0023 25.656 28.3097V19.1983H27.0655C27.443 19.2003 27.7842 18.9727 27.9289 18.6223C28.0737 18.2719 27.9932 17.8684 27.7253 17.6011ZM9.8381 10.612C10.9414 9.57993 12.4386 8.99997 14 8.99997C15.5613 8.99997 17.0586 9.57993 18.1619 10.612L25 17H2.99999L9.8381 10.612ZM19.1073 33C21.8071 32.9945 23.9944 30.8315 24 28.1616V19H4.00001V28.1616C4.00562 30.8315 6.19289 32.9945 8.89275 33H9.39326V25.2727C9.39886 24.7523 9.82711 24.3333 10.3534 24.3333H17.6466C18.1729 24.3333 18.6011 24.7523 18.6067 25.2727V33H19.1073Z" fill="#371B34"/>
<path d="M27.7253 17.6011L19.4081 9.24319C16.417 6.25227 11.583 6.25227 8.59187 9.24319L0.274736 17.6011C0.00681765 17.8684 -0.0736672 18.2719 0.0710632 18.6223C0.215794 18.9727 0.556999 19.2003 0.934508 19.1983H2.34402V28.3097C2.34953 32.0023 5.32706 34.9945 9.00172 35H10.4312C10.9463 34.9945 11.3609 34.5733 11.3609 34.0557V26.3809H16.6391V34.0557C16.6391 34.5733 17.0537 34.9945 17.5688 35H18.9983C22.6729 34.9945 25.6505 32.0023 25.656 28.3097V19.1983H27.0655C27.443 19.2003 27.7842 18.9727 27.9289 18.6223C28.0737 18.2719 27.9932 17.8684 27.7253 17.6011Z" fill="#D9D8D8"/>
</svg>
