<svg width="31" height="32" viewBox="0 0 31 32" fill="none" xmlns="http://www.w3.org/2000/svg">
<path d="M27.845 8V24C27.845 24.7333 27.597 25.3613 27.1008 25.884C26.6047 26.4067 26.009 26.6676 25.3137 26.6667H5.06276C4.36663 26.6667 3.77049 26.4053 3.27435 25.8827C2.7782 25.36 2.53055 24.7324 2.53139 24V8C2.53139 7.26667 2.77946 6.63867 3.27561 6.116C3.77176 5.59334 4.36747 5.33245 5.06276 5.33334H25.3137C26.0098 5.33334 26.6059 5.59467 27.1021 6.11734C27.5982 6.64 27.8459 7.26756 27.845 8ZM5.06276 10.6667H25.3137V8H5.06276V10.6667ZM5.06276 16V24H25.3137V16H5.06276Z" fill="#544C4C"/>
</svg>
