<svg width="134" height="134" viewBox="0 0 134 134" fill="none" xmlns="http://www.w3.org/2000/svg">
<path d="M66.0016 0.929705C66.09 -0.309942 67.91 -0.309927 67.9984 0.92972L70.1127 30.5845C70.1916 31.6915 71.7453 31.8665 72.0686 30.8048L80.7287 2.36408C81.0907 1.17518 82.865 1.58019 82.6754 2.80842L78.1379 32.1901C77.9685 33.2869 79.4443 33.8033 79.9957 32.8402L94.7673 7.03955C95.3848 5.96102 97.0246 6.7507 96.5663 7.90593L85.6045 35.5413C85.1953 36.5729 86.5192 37.4047 87.2711 36.5885L107.414 14.7217C108.256 13.8076 109.679 14.9424 108.975 15.9667L92.1383 40.4699C91.5098 41.3846 92.6154 42.4902 93.5301 41.8617L118.033 25.0253C119.058 24.3215 120.192 25.7444 119.278 26.5864L97.4115 46.7289C96.5953 47.4808 97.4271 48.8047 98.4587 48.3955L126.094 37.4337C127.249 36.9754 128.039 38.6152 126.96 39.2327L101.16 54.0043C100.197 54.5557 100.713 56.0315 101.81 55.8621L131.192 51.3246C132.42 51.135 132.825 52.9093 131.636 53.2713L103.195 61.9314C102.133 62.2547 102.309 63.8084 103.416 63.8873L133.07 66.0016C134.31 66.09 134.31 67.91 133.07 67.9984L103.416 70.1127C102.309 70.1916 102.133 71.7453 103.195 72.0686L131.636 80.7287C132.825 81.0907 132.42 82.865 131.192 82.6754L101.81 78.1379C100.713 77.9685 100.197 79.4443 101.16 79.9957L126.96 94.7673C128.039 95.3848 127.249 97.0246 126.094 96.5663L98.4587 85.6045C97.4271 85.1953 96.5953 86.5192 97.4115 87.2711L119.278 107.414C120.192 108.256 119.058 109.679 118.033 108.975L93.5301 92.1383C92.6154 91.5098 91.5098 92.6154 92.1383 93.5301L108.975 118.033C109.679 119.058 108.256 120.192 107.414 119.278L87.2711 97.4115C86.5192 96.5953 85.1953 97.4271 85.6045 98.4587L96.5663 126.094C97.0246 127.249 95.3848 128.039 94.7673 126.96L79.9957 101.16C79.4443 100.197 77.9685 100.713 78.1379 101.81L82.6754 131.192C82.865 132.42 81.0907 132.825 80.7287 131.636L72.0686 103.195C71.7453 102.133 70.1916 102.309 70.1127 103.416L67.9984 133.07C67.91 134.31 66.09 134.31 66.0016 133.07L63.8873 103.416C63.8084 102.309 62.2547 102.133 61.9314 103.195L53.2713 131.636C52.9093 132.825 51.135 132.42 51.3246 131.192L55.8621 101.81C56.0315 100.713 54.5557 100.197 54.0043 101.16L39.2327 126.96C38.6152 128.039 36.9754 127.249 37.4337 126.094L48.3955 98.4587C48.8047 97.4271 47.4808 96.5953 46.7289 97.4115L26.5864 119.278C25.7444 120.192 24.3215 119.058 25.0253 118.033L41.8617 93.5301C42.4902 92.6154 41.3846 91.5098 40.4699 92.1383L15.9666 108.975C14.9423 109.679 13.8076 108.256 14.7217 107.414L36.5885 87.2711C37.4047 86.5192 36.5729 85.1953 35.5413 85.6045L7.90592 96.5663C6.75068 97.0246 5.96103 95.3848 7.03956 94.7673L32.8402 79.9957C33.8033 79.4443 33.2869 77.9685 32.1901 78.1379L2.80841 82.6754C1.58017 82.865 1.1752 81.0907 2.3641 80.7287L30.8048 72.0686C31.8665 71.7453 31.6915 70.1916 30.5845 70.1127L0.929705 67.9984C-0.309942 67.91 -0.309927 66.09 0.92972 66.0016L30.5845 63.8873C31.6915 63.8084 31.8665 62.2547 30.8048 61.9314L2.36408 53.2713C1.17518 52.9093 1.58019 51.135 2.80842 51.3246L32.1901 55.8621C33.2869 56.0315 33.8033 54.5557 32.8402 54.0043L7.03955 39.2327C5.96101 38.6152 6.75069 36.9754 7.90592 37.4337L35.5413 48.3955C36.5729 48.8047 37.4047 47.4808 36.5885 46.7289L14.7217 26.5864C13.8076 25.7444 14.9424 24.3215 15.9667 25.0253L40.4699 41.8617C41.3846 42.4902 42.4902 41.3846 41.8617 40.4699L25.0253 15.9667C24.3215 14.9424 25.7444 13.8076 26.5864 14.7217L46.7289 36.5885C47.4808 37.4047 48.8047 36.5729 48.3955 35.5413L37.4337 7.90591C36.9754 6.75068 38.6152 5.96103 39.2327 7.03956L54.0043 32.8402C54.5557 33.8033 56.0315 33.2869 55.8621 32.1901L51.3246 2.80841C51.135 1.58017 52.9093 1.1752 53.2713 2.3641L61.9314 30.8048C62.2547 31.8665 63.8084 31.6915 63.8873 30.5845L66.0016 0.929705Z" fill="#E6005B"/>
</svg>
