<svg width="28" height="29" viewBox="0 0 28 29" fill="none" xmlns="http://www.w3.org/2000/svg">
<path fill-rule="evenodd" clip-rule="evenodd" d="M26.9833 10.9797L18.8887 2.3233C15.9776 -0.774434 11.273 -0.774434 8.36192 2.3233L0.267383 10.9797C0.00663519 11.2565 -0.0716957 11.6745 0.0691613 12.0374C0.210018 12.4002 0.542092 12.636 0.909498 12.634H2.28129V22.0707C2.28665 25.8953 5.18449 28.9942 8.76081 29H10.1521C10.6533 28.9943 11.0569 28.5581 11.0569 28.022V20.0731H16.1938V28.022C16.1938 28.5581 16.5973 28.9943 17.0986 29H18.4898C22.0662 28.9942 24.964 25.8953 24.9694 22.0707V12.634H26.3411C26.7085 12.636 27.0406 12.4002 27.1815 12.0374C27.3223 11.6745 27.244 11.2565 26.9833 10.9797ZM9.64383 3.69874C10.6986 2.56909 12.1302 1.93433 13.623 1.93433C15.1158 1.93433 16.5473 2.56909 17.6022 3.69874L24.1401 10.6905H3.10593L9.64383 3.69874ZM18.5017 27.0556C21.0732 27.0498 23.1565 24.8219 23.1619 22.0719V12.6352H4.11246V22.0719C4.11781 24.8219 6.20112 27.0498 8.77266 27.0556H9.24938V19.0963C9.25471 18.5602 9.6626 18.1286 10.1639 18.1287H17.1104C17.6117 18.1286 18.0196 18.5602 18.0249 19.0963V27.0556H18.5017Z" fill="#4545B0"/>
</svg>
