<svg width="30" height="26" viewBox="0 0 30 26" fill="none" xmlns="http://www.w3.org/2000/svg">
<path d="M22.0189 2.60677C19.8984 2.60677 18.1693 4.33588 18.1693 6.45632C18.1693 8.57676 19.8984 10.3059 22.0189 10.3059C24.1393 10.3059 25.8684 8.57675 25.8684 6.45632C25.8684 4.33589 24.1393 2.60677 22.0189 2.60677Z" stroke="black" stroke-width="2"/>
<path d="M11.7294 1.00581C8.9814 1.00581 6.74233 3.24488 6.74233 5.99286C6.74233 8.74084 8.9814 10.9799 11.7294 10.9799C14.4773 10.9799 16.7164 8.74084 16.7164 5.99286C16.7164 3.24488 14.4773 1.00581 11.7294 1.00581Z" stroke="black" stroke-width="2"/>
<path d="M26.6667 12.3344L26.6667 12.3344C25.2479 11.3481 23.2904 10.7529 21.1634 10.7529C19.0365 10.7529 17.079 11.3481 15.6602 12.3344L15.6602 12.3344C14.2506 13.3143 13.3327 14.6958 13.3327 16.2438V20.4299V21.4357H14.3385H26.9826C28.0936 21.4357 28.9942 20.5351 28.9942 19.4241V16.2438C28.9942 14.6958 28.0762 13.3143 26.6667 12.3344Z" stroke="black" stroke-width="2"/>
<path d="M19.3218 13.5375L19.3218 13.5375C17.3846 12.3991 14.6993 11.7052 11.7668 11.7052C8.83432 11.7052 6.14898 12.3991 4.2118 13.5375L4.21178 13.5375C2.30403 14.6586 1.00581 16.2675 1.00581 18.1305V22.183C1.00581 23.294 1.90644 24.1946 3.01743 24.1946H20.5162C21.6271 24.1946 22.5278 23.294 22.5278 22.183V18.1305C22.5278 16.2675 21.2296 14.6586 19.3218 13.5375Z" fill="#DADADA" stroke="black" stroke-width="2"/>
</svg>
