<svg width="42" height="46" viewBox="0 0 42 46" fill="none" xmlns="http://www.w3.org/2000/svg">
<g filter="url(#filter0_d_1_1351)">
<mask id="path-1-outside-1_1_1351" maskUnits="userSpaceOnUse" x="10" y="5" width="22" height="26" fill="black">
<rect fill="white" x="10" y="5" width="22" height="26"/>
<path fill-rule="evenodd" clip-rule="evenodd" d="M26.294 13.2911C26.294 16.2281 23.9391 18.5831 21 18.5831C18.0619 18.5831 15.706 16.2281 15.706 13.2911C15.706 10.354 18.0619 8 21 8C23.9391 8 26.294 10.354 26.294 13.2911ZM21 28C16.6624 28 13 27.295 13 24.575C13 21.8539 16.6854 21.1739 21 21.1739C25.3386 21.1739 29 21.8789 29 24.599C29 27.32 25.3146 28 21 28Z"/>
</mask>
<path fill-rule="evenodd" clip-rule="evenodd" d="M26.294 13.2911C26.294 16.2281 23.9391 18.5831 21 18.5831C18.0619 18.5831 15.706 16.2281 15.706 13.2911C15.706 10.354 18.0619 8 21 8C23.9391 8 26.294 10.354 26.294 13.2911ZM21 28C16.6624 28 13 27.295 13 24.575C13 21.8539 16.6854 21.1739 21 21.1739C25.3386 21.1739 29 21.8789 29 24.599C29 27.32 25.3146 28 21 28Z" fill="#44DAE5"/>
<path d="M21 21.5831C25.5953 21.5831 29.294 17.8856 29.294 13.2911H23.294C23.294 14.5706 22.2829 15.5831 21 15.5831V21.5831ZM12.706 13.2911C12.706 17.886 16.4061 21.5831 21 21.5831V15.5831C19.7177 15.5831 18.706 14.5702 18.706 13.2911H12.706ZM21 5C16.4068 5 12.706 8.6954 12.706 13.2911H18.706C18.706 12.0127 19.717 11 21 11V5ZM29.294 13.2911C29.294 8.69577 25.5946 5 21 5V11C22.2837 11 23.294 12.0123 23.294 13.2911H29.294ZM10 24.575C10 26.0038 10.5091 27.2815 11.4283 28.2846C12.2857 29.2201 13.3717 29.7812 14.3719 30.1354C16.3325 30.8297 18.7583 31 21 31V25C18.9041 25 17.3299 24.8178 16.3748 24.4796C15.9173 24.3176 15.8166 24.1924 15.8517 24.2307C15.8792 24.2607 15.9264 24.3245 15.9622 24.4167C15.9789 24.4596 15.989 24.4983 15.9945 24.5291C16 24.5596 16 24.5761 16 24.575H10ZM21 18.1739C18.7751 18.1739 16.3527 18.3374 14.3929 19.0218C13.3934 19.3709 12.3034 19.9262 11.441 20.8585C10.5147 21.8598 10 23.1402 10 24.575H16C16 24.5748 16 24.5925 15.9942 24.6243C15.9883 24.6566 15.9778 24.6967 15.9604 24.741C15.9232 24.8362 15.8741 24.9018 15.8455 24.9328C15.809 24.9723 15.9099 24.8474 16.3712 24.6863C17.3327 24.3505 18.9102 24.1739 21 24.1739V18.1739ZM32 24.599C32 23.1704 31.4912 21.8927 30.572 20.8896C29.7147 19.954 28.6288 19.3928 27.6285 19.0386C25.668 18.3442 23.2422 18.1739 21 18.1739V24.1739C23.0965 24.1739 24.6706 24.3562 25.6255 24.6943C26.0828 24.8563 26.1834 24.9814 26.1482 24.943C26.1208 24.913 26.0735 24.8492 26.0377 24.757C26.0211 24.7141 26.011 24.6755 26.0054 24.6447C26 24.6143 26 24.5978 26 24.599H32ZM21 31C23.2249 31 25.6473 30.8366 27.6071 30.1521C28.6066 29.8031 29.6966 29.2477 30.559 28.3154C31.4853 27.3141 32 26.0337 32 24.599H26C26 24.5991 26 24.5814 26.0058 24.5496C26.0117 24.5173 26.0222 24.4772 26.0396 24.4329C26.0768 24.3378 26.1259 24.2721 26.1545 24.2412C26.191 24.2017 26.0901 24.3265 25.6288 24.4876C24.6673 24.8234 23.0898 25 21 25V31Z" fill="#FCFCFC" mask="url(#path-1-outside-1_1_1351)"/>
</g>
<defs>
<filter id="filter0_d_1_1351" x="0" y="0" width="42" height="46" filterUnits="userSpaceOnUse" color-interpolation-filters="sRGB">
<feFlood flood-opacity="0" result="BackgroundImageFix"/>
<feColorMatrix in="SourceAlpha" type="matrix" values="0 0 0 0 0 0 0 0 0 0 0 0 0 0 0 0 0 0 127 0" result="hardAlpha"/>
<feOffset dy="5"/>
<feGaussianBlur stdDeviation="5"/>
<feColorMatrix type="matrix" values="0 0 0 0 0.239288 0 0 0 0 0.711225 0 0 0 0 0.745833 0 0 0 0.2 0"/>
<feBlend mode="normal" in2="BackgroundImageFix" result="effect1_dropShadow_1_1351"/>
<feBlend mode="normal" in="SourceGraphic" in2="effect1_dropShadow_1_1351" result="shape"/>
</filter>
</defs>
</svg>
