<svg width="44" height="48" viewBox="0 0 44 48" fill="none" xmlns="http://www.w3.org/2000/svg">
<path d="M37.1972 36.5012L38.7168 36.3982L38.7168 36.3982L37.1972 36.5012ZM19.5196 18.5339L19.5267 20.057L19.5268 20.057L19.5196 18.5339ZM12.6615 27.4351L13.9401 26.6074L13.9401 26.6074L12.6615 27.4351ZM26.1186 30.0754L25.3894 28.7381L25.3894 28.7381L26.1186 30.0754ZM27.0612 9.57044L28.144 8.49911L28.1439 8.4991L27.0612 9.57044ZM1.35692 0.281549C0.520733 0.373441 -0.082632 1.1258 0.00926265 1.96198C0.101157 2.79816 0.853513 3.40153 1.6897 3.30964L1.35692 0.281549ZM26.6446 48L43.9768 45.0116L32.7226 31.4957L26.6446 48ZM38.7168 36.3982C37.9518 25.1155 28.9724 16.9662 19.5124 17.0107L19.5268 20.057C27.2462 20.0207 35.012 26.7902 35.6775 36.6043L38.7168 36.3982ZM19.5124 17.0107C17.2655 17.0213 14.368 18.1559 12.4378 20.0104C11.4502 20.9593 10.6274 22.1816 10.349 23.6445C10.0637 25.1434 10.3842 26.72 11.3828 28.2628L13.9401 26.6074C13.3144 25.6407 13.2202 24.852 13.3416 24.214C13.4698 23.5401 13.875 22.8541 14.5483 22.2072C15.94 20.8701 18.096 20.0637 19.5267 20.057L19.5124 17.0107ZM11.3828 28.2628C14.8669 33.6452 22.1805 33.9579 26.8479 31.4126L25.3894 28.7381C21.6383 30.7837 16.2884 30.2353 13.9401 26.6074L11.3828 28.2628ZM26.8478 31.4126C31.7418 28.7439 33.9406 24.7407 33.855 20.4078C33.7718 16.1933 31.5361 11.9272 28.144 8.49911L25.9785 10.6418C29.0071 13.7024 30.746 17.2644 30.8093 20.4679C30.8702 23.5531 29.3874 26.5579 25.3894 28.7381L26.8478 31.4126ZM28.1439 8.4991C20.5901 0.865217 10.7746 -0.75344 1.35692 0.281549L1.6897 3.30964C10.56 2.33481 19.3055 3.89804 25.9786 10.6418L28.1439 8.4991ZM38.6956 39.3667C38.7791 38.4497 38.789 37.462 38.7168 36.3982L35.6775 36.6043C35.7398 37.5228 35.7294 38.3486 35.6619 39.0905L38.6956 39.3667Z" fill="black"/>
</svg>
