<svg width="37" height="40" viewBox="0 0 37 40" fill="none" xmlns="http://www.w3.org/2000/svg">
<g filter="url(#filter0_d_1_1077)">
<mask id="path-1-outside-1_1_1077" maskUnits="userSpaceOnUse" x="10.0909" y="5.04546" width="17.1546" height="20.1818" fill="black">
<rect fill="white" x="10.0909" y="5.04546" width="17.1546" height="20.1818"/>
<path fill-rule="evenodd" clip-rule="evenodd" d="M22.0614 11.6322C22.0614 13.608 20.4772 15.1923 18.5 15.1923C16.5235 15.1923 14.9386 13.608 14.9386 11.6322C14.9386 9.65635 16.5235 8.07274 18.5 8.07274C20.4772 8.07274 22.0614 9.65635 22.0614 11.6322ZM18.5 21.5273C15.582 21.5273 13.1182 21.053 13.1182 19.2232C13.1182 17.3927 15.5975 16.9352 18.5 16.9352C21.4187 16.9352 23.8818 17.4095 23.8818 19.2393C23.8818 21.0698 21.4026 21.5273 18.5 21.5273Z"/>
</mask>
<path fill-rule="evenodd" clip-rule="evenodd" d="M22.0614 11.6322C22.0614 13.608 20.4772 15.1923 18.5 15.1923C16.5235 15.1923 14.9386 13.608 14.9386 11.6322C14.9386 9.65635 16.5235 8.07274 18.5 8.07274C20.4772 8.07274 22.0614 9.65635 22.0614 11.6322ZM18.5 21.5273C15.582 21.5273 13.1182 21.053 13.1182 19.2232C13.1182 17.3927 15.5975 16.9352 18.5 16.9352C21.4187 16.9352 23.8818 17.4095 23.8818 19.2393C23.8818 21.0698 21.4026 21.5273 18.5 21.5273Z" fill="#44DAE5"/>
<path d="M18.5 18.2196C22.1485 18.2196 25.0887 15.2806 25.0887 11.6322H19.0342C19.0342 11.9354 18.806 12.165 18.5 12.165V18.2196ZM11.9113 11.6322C11.9113 15.281 14.8526 18.2196 18.5 18.2196V12.165C18.1944 12.165 17.9659 11.935 17.9659 11.6322H11.9113ZM18.5 5.04546C14.8534 5.04546 11.9113 7.98265 11.9113 11.6322H17.9659C17.9659 11.3301 18.1936 11.1 18.5 11.1V5.04546ZM25.0887 11.6322C25.0887 7.98302 22.1477 5.04546 18.5 5.04546V11.1C18.8067 11.1 19.0342 11.3297 19.0342 11.6322H25.0887ZM10.0909 19.2232C10.0909 20.4363 10.5276 21.5392 11.317 22.4005C12.0438 23.1936 12.9401 23.6444 13.7043 23.915C15.1923 24.442 16.9674 24.5546 18.5 24.5546V18.5C17.8456 18.5 17.2649 18.4731 16.7707 18.4168C16.2653 18.3592 15.9272 18.2793 15.7254 18.2078C15.5089 18.1311 15.6069 18.1203 15.7806 18.3098C16.0168 18.5675 16.1455 18.925 16.1455 19.2232H10.0909ZM18.5 13.9079C16.9806 13.9079 15.2088 14.0157 13.7225 14.5348C12.9596 14.8012 12.06 15.2472 11.3286 16.0378C10.5328 16.8981 10.0909 18.0042 10.0909 19.2232H16.1455C16.1455 19.5269 16.0135 19.8894 15.7732 20.1491C15.5975 20.3391 15.499 20.3275 15.7188 20.2507C15.923 20.1794 16.2634 20.1005 16.7703 20.0439C17.266 19.9886 17.8469 19.9625 18.5 19.9625V13.9079ZM26.9091 19.2393C26.9091 18.0265 26.4726 16.9236 25.6834 16.0622C24.9566 15.269 24.0603 14.8181 23.2961 14.5475C21.8081 14.0205 20.0329 13.9079 18.5 13.9079V19.9625C19.1546 19.9625 19.7354 19.9894 20.2297 20.0457C20.735 20.1033 21.0731 20.1832 21.2748 20.2547C21.4912 20.3313 21.3931 20.3421 21.2194 20.1525C20.9832 19.8947 20.8546 19.5372 20.8546 19.2393H26.9091ZM18.5 24.5546C20.0195 24.5546 21.7912 24.4468 23.2775 23.9277C24.0404 23.6613 24.9401 23.2153 25.6714 22.4247C26.4672 21.5644 26.9091 20.4583 26.9091 19.2393H20.8546C20.8546 18.9356 20.9866 18.5731 21.2268 18.3134C21.4026 18.1234 21.501 18.135 21.2813 18.2118C21.077 18.2831 20.7366 18.362 20.2297 18.4186C19.734 18.4739 19.1531 18.5 18.5 18.5V24.5546Z" fill="white" mask="url(#path-1-outside-1_1_1077)"/>
</g>
<defs>
<filter id="filter0_d_1_1077" x="0" y="0" width="37" height="39.6909" filterUnits="userSpaceOnUse" color-interpolation-filters="sRGB">
<feFlood flood-opacity="0" result="BackgroundImageFix"/>
<feColorMatrix in="SourceAlpha" type="matrix" values="0 0 0 0 0 0 0 0 0 0 0 0 0 0 0 0 0 0 127 0" result="hardAlpha"/>
<feOffset dy="5"/>
<feGaussianBlur stdDeviation="5"/>
<feColorMatrix type="matrix" values="0 0 0 0 0.239288 0 0 0 0 0.711225 0 0 0 0 0.745833 0 0 0 0.2 0"/>
<feBlend mode="normal" in2="BackgroundImageFix" result="effect1_dropShadow_1_1077"/>
<feBlend mode="normal" in="SourceGraphic" in2="effect1_dropShadow_1_1077" result="shape"/>
</filter>
</defs>
</svg>
